<svg xmlns="http://www.w3.org/2000/svg" xmlns:xlink="http://www.w3.org/1999/xlink" width="700" height="500"><path fill="#e41e20" d="M0 0h700v500H0z"/><path id="a" d="M300.094 97.204c-4.862-.082-12.93 1.55-12.75 5.282-13.542-2.32-14.952 3.272-14.156 8.25 1.288-1.976 2.857-3.048 4.062-3.25 1.806-.3 3.696.283 5.625 1.468 1.93 1.186 4.056 3.098 5 4.28-4.78 1.144-8.47.406-12.218-.25-1.848-.322-4.433-1.36-5.97-2.436-1.536-1.076-2.02-2.088-4.437-4.563-2.85-2.918-5.882-2.096-4.937 2.438 2.185 4.21 5.836 6.088 10.437 6.844 2.214.363 5.512 1.152 9.25 1.156 3.738.004 7.936-.54 10.22-.063-1.373.862-2.925 2.347-6 2.938-3.13.6-7.884-1.86-10.782-2.53.368 2.437 3.444 4.717 9.5 5.905 9.95 2.167 18.22 3.814 23.687 6.78 5.467 2.97 8.914 6.684 11.375 9.595 4.9 5.793 5.157 10.24 5.47 11.218 1.007 9.256-2.22 14.463-8.22 16.063-3 .8-8.327-.708-10.28-3-1.954-2.294-3.855-6.235-3.313-12.407.526-2.42 3.295-8.728.937-10.03-10.86-6.005-24.05-12.076-33.594-15.69-2.608-.986-4.756 2.56-5.593 3.94-16.21-1.975-30.827-12.945-37.407-24.626-4.48-7.956-11.866.016-10.625 7.53 2.005 8.39 8.395 14.453 16.063 18.75 7.87 4.334 17.706 8.598 27.656 8.376 5.36 1.014 5.308 7.95-1.125 9.25-12.582.08-22.618-.234-32.095-9.375-7.187-6.563-11.234 1.257-9.156 5.688 3.52 13.658 23.005 17.483 42.718 13.062 7.633-1.264 3.062 6.915.906 7-8.237 5.906-22.983 11.684-35.97-.062-5.94-4.55-9.96-.726-7.75 5.843 5.763 17.127 27.805 13.53 42.94 5.093 3.894-2.17 7.43 2.88 2.686 6.72-18.82 13.15-28.23 13.3-36.718 8.25-10.628-4.192-11.563 7.595-5.25 11.468 7.015 4.305 24.87 1.078 37.968-7.156 5.616-4.174 5.87 2.353 2.313 4.938-15.544 13.433-21.67 16.97-37.875 14.78-8.035-.625-7.915 9.28-1.594 13.157 8.63 5.292 25.483-3.493 38.563-14.345 5.505-2.94 6.41 1.883 3.687 7.594-7.992 10.082-15.493 16.027-22.72 18.78-7.224 2.754-14.174 2.315-19.092.625-6-2.06-6.753 4.174-3.438 9.844 1.998 3.416 10.28 4.512 19.22 1.343 8.938-3.17 18.535-10.603 25.124-19.313 5.733-5.02 5.02 1.724 2.406 6.47-13.194 20.857-25.262 28.595-41.156 27.28-7.048-1.197-8.648 4.284-4.156 9.344 7.887 6.54 17.75 6.336 26.375-.125 7.668-7.395 22.338-23.315 30.03-31.845 5.422-4.322 7.154-.06 5.563 8.72-1.446 5.027-5.068 10.322-14.937 14.186-6.742 3.85-1.68 9.153 3.375 9.25 2.78.055 8.43-3.196 12.75-8.06 5.684-6.402 6.022-10.7 9.156-20.658 2.96-4.854 8.25-2.588 8.25 2.5-2.536 9.976-4.716 11.764-9.844 15.844-4.904 4.605 3.416 6.14 6.22 4.25 8.11-5.467 11.07-12.538 13.78-18.97 1.956-4.64 7.63-2.39 5 5.19-6.286 18.112-16.615 25.244-34.687 28.905-1.832.327-2.95 1.408-2.313 3.532 2.426 2.518 4.856 4.803 7.282 7.313-11.175 3.254-20.254 5.082-31.438 8.344-5.487-3.598-9.92-6.65-15.406-10.25-1.447-3.383-2.122-8.546-10.22-4.907-5.486-2.534-8.017-1.605-11.062.937 4.396.164 6.308 1.34 8.032 3.344 2.25 5.926 7.438 6.5 12.75 4.813 3.455 2.91 5.295 5.143 8.75 8.062-6.45-.22-10.942-.336-17.375-.532-6.14-6.593-11.042-6.232-15.438-1.062-3.35.514-4.77.586-7.062 4.656 3.605-1.48 5.873-1.923 7.437-.312 6.53 3.785 10.794 2.94 14.032 0 6.298.385 11.974.71 18.28 1.125-2.316 1.97-5.495 3.013-7.812 5-9.46-2.707-14.398.936-16.062 8.656-1.268 3.117-1.862 6.324-1.313 9.657.916-3.048 2.388-5.67 5.094-7.312 8.43 2.14 11.602-1.3 12.06-6.344 4.066-3.315 10.195-4.047 14.25-7.405 4.744 1.518 7.037 2.46 11.814 3.968 1.698 5.16 5.54 7.205 11.78 5.875 7.43.233 6.118 3.28 6.72 5.72 1.974-3.502 1.92-6.907-2.656-10-1.665-4.523-5.353-6.58-10.188-3.97-4.55-1.292-5.747-3.15-10.28-4.437 11.467-3.654 19.602-4.477 31.06-8.124 2.87 2.706 5.143 4.648 8.033 7.062 1.523.91 2.98 1.138 3.875 0 7.18-10.393 10.388-19.552 17.062-26.406 2.55-2.835 5.772-6.66 9.344-7.594 1.786-.466 3.976-.18 5.375 1.344 1.398 1.526 2.496 4.337 2.03 8.53-.668 6.022-2.123 7.923-3.812 11.533-1.69 3.61-3.754 5.83-5.875 8.593-4.244 5.528-9.843 8.746-13.156 10.907-6.628 4.32-9.43 2.43-14.563 2.156-6.633.745-8.397 3.975-2.97 8.438 5.076 2.64 9.638 2.967 13.345 2.282 3.182-.59 6.907-4.698 9.562-6.907 2.987-3.45 7.94.642 4.562 4.657-6.14 7.294-12.274 12.104-19.844 12-7.954 1.07-6.466 5.54-1.187 7.718 9.5 3.922 18.08-3.423 22.437-8.25 3.363-3.678 5.75-3.822 5.157 1.875-3.338 10.314-7.9 14.298-15.344 14.813-6.04-.56-6.104 4.1-1.688 7.25 10.06 6.963 17.346-4.895 20.75-12.063 2.426-6.465 6.146-3.39 6.532 1.938.05 7.12-3.167 12.933-11.782 20.22 6.592 10.5 14.276 21.182 20.875 31.718l20.005-222.806-20-35.202c-2.083-1.923-9.127-10.223-10.968-11.375-.672-.717-1.08-1.224-.094-1.593.954-.358 3.186-.758 4.688-1.032-4.24-4.25-7.876-5.61-15.906-7.937 1.957-.833 3.86-.348 9.625-.625-2.29-3.248-7.4-8.224-14-10.625 4.358-3.098 5.207-3.306 9.53-6.937-7.486-.53-13.88-1.958-20.312-3.907-4.067-1.902-9.716-3.517-12.47-3.563zm.72 8.72c3.955 0 6.405 1.355 6.405 3 0 1.67-2.45 3.03-6.407 3.03-3.94 0-6.437-1.483-6.437-3.156 0-1.644 2.497-2.875 6.437-2.875z"/><use xlink:href="#a" transform="matrix(-1 0 0 1 700 0)"/></svg>375,1.78605-0.4662,3.97638-0.1818,5.37498,1.34379,1.3986,1.52541,2.49723,4.33683,2.0313,8.53128-0.6687,6.02082-2.12337,7.9218-3.81249,11.5312-1.68912,3.60954-3.75336,5.82975-5.87502,8.59374-4.24341,5.52789-9.8424,8.74539-13.1562,10.9062-6.62769,4.3218-9.43073,2.43027-14.5625,2.15622-6.63273,0.7443-8.39754,3.97467-2.96874,8.4375,5.07492,2.64051,9.63652,2.96649,13.3438,2.28123,3.18312-0.5886,6.90831-4.6971,9.5625-6.90624,2.98764-3.4515,7.94097,0.6417,4.56246,4.65624-6.13935,7.29477-12.2738,12.1044-19.8438,12-7.95465,1.07055-6.46668,5.54004-1.18746,7.71876,9.50117,3.92121,18.0796-3.42351,22.4375-8.25003,3.36222-3.67839,5.75028-3.82185,5.15628,1.87497-3.33783,10.3136-7.89912,14.2977-15.3438,14.8125-6.03855-0.5607-6.1038,4.10058-1.6875,7.25004,10.0603,6.96321,17.3459-4.89474,20.75-12.0625,2.42568-6.46569,6.14619-3.39093,6.5313,1.93752,0.0502,7.11936-3.16674,12.9321-11.7812,20.2187,6.59115,10.5015,14.2752,21.1829,20.8749,31.7188l20.005-222.806-20-35.202c-2.08305-1.92312-9.12777-10.223-10.9686-11.375-0.6714-0.7173-1.07973-1.22409-0.0936-1.59372,0.95364-0.3573,3.18591-0.7578,4.68747-1.03122-4.2417-4.2489-7.87662-5.61159-15.9065-7.93728,1.95687-0.8334,3.86037-0.3483,9.625-0.6246-2.2886-3.24868-7.40028-8.22482-14-10.6254,4.35852-3.09852,5.20785-3.30617,9.53126-6.93749-7.48656-0.531-13.8798-1.95712-20.3125-3.90625-4.06692-1.90161-9.71539-3.51615-12.4687-3.56251zm0.7191,8.71875c3.95622,0,6.40629,1.35612,6.40629,2.99997,0,1.67238-2.45007,3.03129-6.40629,3.03129-3.93975,0-6.43752-1.48293-6.43752-3.15621,0.00071-1.64385,2.49777-2.87505,6.43752-2.87505z" fill="#000"/>
<use xlink:href="#half" transform="matrix(-1,0,0,1,700,0)"/>
</svg>