<svg xmlns="http://www.w3.org/2000/svg" xmlns:xlink="http://www.w3.org/1999/xlink" width="1000" height="700"><path fill="#d0103a" d="M0 0h1000v700H0z"/><path fill="#fedf00" d="M0 0h680v700H0z"/><path fill="#0018a8" d="M0 0h320v700H0z"/><path fill="#c7b37f" d="M469.37 188.48c12.05 0 16.98 10.338 29.03 10.338 7.438 0 11.776-2.43 18.26-6.087 4.524-2.56 7.41-3.926 12.605-3.926 5.32 0 8.58 1.608 11.3 6.167 1.538 2.58 2.815 7.63 2.14 10.526-1.283 5.493-2.072 7.88-4.263 12.953-1.043 2.437-2.028 3.897-2.028 6.565 0 6.396 8.704 8.594 14.622 8.685 1.29.02 12.14.198 18.815-6.56-3.62-.16-7.674-2.965-7.674-6.588 0-4.1 2.88-6.873 6.785-8.057.743-.212 2.007.443 2.678.09.954-.495.508-1.568 1.356-2.24 1.944-1.555 3.207-2.525 5.7-2.525 1.624 0 2.577.23 3.884 1.165.69.495.943 1.107 1.79 1.107 1.786 0 2.67-1.13 4.454-1.13 1.45 0 2.332.194 3.604.848 1.06.548 1.037 2.35 2.238 2.35.6 0 3.78-1.297 5.44-1.297 3.446 0 5.285 1.248 7.512 3.863.6.707.985 2.137 1.596 2.137 1.23 0 4.065.792 5.832 2.56.76.76 1.096 1.118 1.68 2.037.406.654 1.03 2.25 1.748 2.526.842.324 1.548.26 2.655.97 2.525 1.62 4.468 4.663 4.377 7.612-.03.99-.482 2.368-.75 3.31-2.942 10.284-9.94 13.548-17.01 22.382-3.003 3.763-5.374 6.767-5.374 11.59 0 1.167 1.436 3.303 2.073 4.275-.39-2.267.647-5.05 3.043-5.18 3.282-.178 5.817 2.317 6.26 5.568.087.76-.196 2.073-.52 2.85 1.767-1.167 4.097-1.955 6.217-2.202 1.15-.123 1.813-.158 2.98-.13 5.244.13 11.033 3.082 14.546 6.065 10.748 9.13 12.048 22.492 11.46 26.203-1.304 8.246-.483 23.168-21.56 29.117 3.898 1.64 6.55 4.573 6.55 8.178 0 3.923-3.004 7.28-6.926 7.28-2.245 0-3.8-.548-5.372-2.12-4.382 4.38-5.23 8.852-5.23 15.054 0 3.71.706 5.9 2.26 9.258 1.645 3.552 2.828 5.637 5.797 8.2 1.572-2.37 3.233-4.1 6.077-4.1 2.757 0 5.09.883 6.22 3.392.336.76.035 1.38.424 2.12.496.955 1.327 1.167 1.84 2.12.794 1.468.017 2.722.706 4.242.44.988 1.413 1.13 1.837 2.12.672 1.52.85 2.56.85 4.24 0 4.7-4.278 8.057-8.978 8.057-1.413 0-2.19-.565-3.604-.424 2.687 2.686 4.736 3.852 6.786 7.068 2.968 4.648 3.71 7.952 4.382 13.43.124 1.025.142 1.643.142 2.686 0 7.032-1.096 11.238-4.24 17.528-3.005 6.025-5.567 9.365-11.027 13.287-8.517 6.132-14.72 7.9-25.02 9.896-6.61 1.272-10.39 1.838-17.105 2.262-8.588.548-13.482.565-22.052 1.13-11.238.76-19.03 2.35-27 10.32 3.765 2.756 6.362 5.46 6.362 10.107 0 4.77-2.95 8.18-7.492 9.683-1.06.353-1.838.035-2.827.565-1.185.618-1.132 1.98-2.263 2.686-1.997 1.27-3.552 1.554-5.937 1.554-4.205 0-7.068-.99-10.037-3.96-3.445 2.864-4.612 5.444-8.48 7.635-1.274.706-1.928 1.695-3.394 1.695-2.316 0-3.376-1.466-5.23-2.827-2.952-2.156-4.525-3.587-6.928-6.36-3.516 2.102-5.672 3.816-9.754 3.816-2.51 0-4.1-.354-6.22-1.697-1.113-.69-1.29-1.714-2.403-2.403-1.166-.724-2.138-.46-3.392-.99-4.718-2.03-7.775-5.53-7.775-10.67 0-4.507 2.845-7.37 6.927-9.26-7.828-7.828-15.532-9.188-26.576-9.895-8.536-.55-13.395-.566-21.912-1.132-6.768-.46-10.53-1.15-17.246-2.262-5.072-.83-8.075-1.095-12.722-3.25-15.99-7.458-26.187-17.688-28.272-35.2-.177-1.5-.142-2.367-.142-3.886 0-9.118 3.587-14.683 10.036-21.133-1.66-.39-2.774.16-4.382-.424-4.03-1.467-6.926-4.26-6.926-8.553 0-1.59.07-2.65.848-4.028.548-.972 1.59-1.167 1.837-2.262.317-1.45-.107-2.474.565-3.817.442-.9 1.272-1.078 1.696-1.98 1.397-2.896 3.147-5.23 6.362-5.23 2.757 0 4.524 1.45 5.937 3.818 2.685-1.236 3.427-3.25 4.947-5.795 2.527-4.223 3.675-7.174 3.675-12.086 0-3.43-.335-5.443-1.413-8.694-.78-2.333-1.097-3.923-2.828-5.654-1.573 1.572-3.128 2.12-5.372 2.12-4.488 0-7.916-3.852-7.916-8.34 0-3.34 1.643-5.813 4.665-7.21-2.422-2.084-4.525-2.26-7.21-3.957-4.082-2.58-5.513-5.3-8.2-9.33-1.75-2.633-2.208-4.47-3.11-7.492-1.077-3.64-1.696-5.813-1.696-9.612 0-.99.018-1.572.14-2.544 1.01-7.668 2.387-12.475 7.21-18.518 2.863-3.587 4.807-5.795 9.048-7.633 3.604-1.555 5.76-2.686 9.683-2.686 1.184 0 1.873 0 3.04.14 1.8.23 2.95.39 4.523 1.273.6.336 1.696 1.343 1.696.636 0-.814-.424-1.238-.424-2.05 0-3.252 2.332-6.22 5.584-6.22 2.35 0 3.304 2.067 4.453 4.1.742-1.238 1.13-2.086 1.13-3.535 0-5.372-2.88-8.11-6.22-12.298-7.28-9.1-16.397-13.358-16.397-25.02 0-3.48 1.678-5.85 4.665-7.633.865-.513 2.03 0 2.877-.543.725-.458.642-1.394 1.1-2.136.726-1.148 1.367-1.642 2.374-2.525 1.66-1.45 3.12-1.016 4.957-2.288.92-.636 1.136-1.463 1.843-2.31 2.05-2.474 3.89-3.67 7.123-3.67 1.624 0 2.537.01 4.038.608.513.195 1.47.967 1.595.818.323-.39 1.2-1.32 2.243-1.813 1.36-.654 1.913-.907 3.432-.907 1.732 0 2.866.97 4.598.97.636 0 .783-.634 1.295-.97 1.538-1.042 2.423-1.632 4.296-1.632 1.803 0 2.798.596 4.318 1.567 1.43.902 1.637 2.108 3.103 2.957.813.477 1.502.265 2.404.565 4.03 1.343 7.07 4.03 7.07 8.27 0 2.297-.55 3.94-2.263 5.442-1.36 1.2-2.65.99-4.382 1.555 5.62 4.488 10.508 5.6 17.682 5.6 6.573 0 14.612-2.686 14.612-9.26 0-3.056-1.69-4.698-2.893-7.508-2.156-5-3.325-7.942-3.325-13.384 0-4.31.47-6.927 2.98-10.426 2.578-3.604 5.73-4.445 10.166-4.445z"/><g fill="none" stroke="#703d29"><path stroke-width="1.041" stroke-linejoin="round" d="M425.59 223.46c.432 1.631 1.752 3.16 3.82 3.807 1.244.388 4.12.233 5.986-2.177 1.513-1.954 1.397-4.374.833-6.297-.367-1.245-1.372-2.446-2.7-3.468l-7.937 8.057-.002.08z"/><path stroke-width="1.037" stroke-linecap="round" d="M626.61 343.94c-1.866-4.51-6.686-2.488-6.983 0-.683 5.732 4.34 7.464 7.916 6.53 1.77-.46 3.067-1.577 3.896-3.03.933-1.64 1.216-3.78.61-5.824-.276-.927-.664-1.707-1.327-2.58-.665-.88-1.354-1.48-2-1.892-1.374-.877-2.873-.964-5.223-.964-8.708 0-16.327 10.29-18.886 20.977-.842 3.52-2 11.37-.396 18.815 1.71 7.93 5.138 13.42 9.16 17.585 2.177 2.254 5.146 4.262 8.99 6.435 1.185.67 4.32 2.06 6.496 2.683 2.236.64 4.3.545 6.16.142 5.158-1.12 7.558-5.92 4.958-10.83-2.128-4.02-8.396-6.22-11.35-1.088-.25.435-.642 1.383-.63 2.41.017 1.368.585 3.017 1.562 3.64 2.246 1.428 5.838 1.024 5.672-2.94"/><path stroke-width="1.276" d="M599.69 403.07c1.748-2.056 5.757-5.14 10.343-5.703 4.654-.572 8.7.783 12.828 3.004 8.06 4.336 12.555 8.996 15.55 17.642.76 2.196 1.391 5.506 1.304 9.022-.14 5.604-1.563 11.73-3.092 14.692-1.334 2.583-4.82 13.994-23.946 21.868-11.16 4.594-28.3 5.653-40.118 6.12-16.256.642-31.254 1.244-39.962 11.973"/><g stroke-width="1.121"><path d="M603.75 421.45c-.466-1.71-.035-3.35 1.322-5.21 1.814-2.485 5.675-3.342 9.174-1.398 1.17.65 2.638 1.506 3.965 3.265.503.665 1.35 1.74 1.79 2.488 1.058 1.81 1.493 3.292 1.702 3.887 3.846 10.928-2.265 22.77-10.255 27.522-6.206 3.69-13.608 5.336-22.47 6.375-3.98.467-6.256.436-10.262.622-3.223.15-6.008.096-8.63.064-2.157-.027-4.205-.016-6.297-.064-3.415-.08-6.95-.16-11.274.155-4.55.33-7.972.448-11.818 1.09-2.51.417-5.455.82-8.542 1.514-.926.208-1.865.378-2.81.662-.633.192-1.26.386-1.88.575-5.572 1.7-10.985 3.77-15.257 6.52-1.32.85-2.81 1.702-3.877 2.71-.665.626-1.472 1.255-2.124 1.897-2.99 2.94-6.047 6.126-6.762 10.438-.132.795-.132 1.63-.132 2.507 0 2.797 2.278 6.607 8.42 7.85M516.37 229.11c1.285 2.324 1.992 3.738 1.244 6.142-.847 2.723-2.778 4.354-5.52 4.354-6.22 0-9.878-7.364-7.075-12.05 4.975-8.32 14.538-3.648 23.4.473-.427-2.135-1.172-2.83-1.095-5.472.193-6.565 5.06-9.542 7.005-15.605 1.157-3.613 1.618-6.75-1.025-9.316-2.308-2.24-4.982-2.205-7.994-1.025-6.016 2.36-13.245 9.138-25.97 9.326-12.723-.188-20.01-6.967-26.03-9.326-3.01-1.18-5.685-1.214-7.993 1.025-2.643 2.566-2.183 5.703-1.025 9.316 1.944 6.064 6.812 9.04 7.005 15.605.077 2.643-.67 3.337-1.096 5.47 8.864-4.12 18.8-9.21 23.403-.473 2.565 4.87-.855 12.05-7.075 12.05-2.742 0-4.667-1.747-5.52-4.353-.76-2.323 0-4.354 1.244-6.142"/><path stroke-linecap="round" d="M491.5 224.79c2.403 1.838 4.1 4.1 3.817 7.775-.307 3.986-1.273 4.947-4.382 7.068M494.68 233.7c-.14 2.403-1.13 3.958-3.534 4.947"/></g><path fill="#c7b37f" stroke="none" d="M432.4 214.49l1.088.777 1.166 1.245.778 1.555.39 1.32.077 1.712-.08 1.165-.388 1.322-.778.932-.933 1.01-1.32.7-1.71.39-1.478.232-1.555-.7-1.4-1.01-.854-1.245-.622-1.555v-.62l7.62-7.232z"/><path stroke-width="1.041" stroke-linecap="round" d="M430.01 220.57c-.478-2.58-3.496-3.11-4.665-1.586-1.8 2.348-.485 6.257 3.176 7.4 1.245.39 4.122.235 5.988-2.176 1.512-1.953 1.396-4.373.832-6.296-.366-1.245-1.365-2.33-2.698-3.344-4.252-3.233-11.118-2.488-13.373 2.954-2.91 7.02 3.42 12.284 9.25 16.25 7.342 4.99 15.706 5.9 22.004 5.83 14.306-.155 25.19-6.997 32.265-10.884 1.647-.905 3.344-.72 4.197.31.963 1.166.947 3.044-.39 4.277"/><path stroke-width="1.057" d="M387.6 414.35l-3.188 1.166-3.265 2.488-1.4 1.944-1.788 3.11-.778 2.332-.622 2.877-.31 2.177M405.95 414.66l-.233 2.8-.467 1.943-1.4 3.343-2.176 2.877-2.333 1.865-1.71.856-2.41.544"/><path stroke-width="1.197" d="M499.6 489.23c-.58 2.588-3.004 5.548-8.28 6.617l-1.024.212"/><path stroke-width="1.356" d="M631.59 406.57c3.34 3.114 5.685 6.905 7.488 12.11.76 2.194 1.39 5.505 1.303 9.02-.138 5.604-1.56 11.73-3.09 14.692-1.334 2.584-4.82 13.994-23.946 21.868-11.16 4.595-28.3 5.654-40.118 6.12-16.022.633-30.822 1.227-39.582 11.517"/><path stroke-width=".929" d="M605.45 416.95c1.188-1.62 5.517-3.673 9.016-1.73 1.152.64 2.517 1.45 3.714 3.243"/><path stroke-width="1.356" d="M627.51 402.79c.782.3 1.56.572 2.244.767 2.236.64 4.337.688 6.158.142 4.423-1.328 7.26-5.46 4.96-10.83-.534-1.245-1.556-2.44-2.717-3.334"/><path stroke-width="1.041" stroke-linecap="round" d="M375.44 287.13c-2.969 1.838-5.182 2.273-7.492 4.947-2.3 4.554-3.203 7-4.1 10.65M435.88 221.96c0 2.686-1.98 4.382-4.665 4.947"/><path stroke-width=".997" d="M620.49 275.03c7.39-.15 28.86 5.64 29.012 30.876.15 24.925-15.383 28.997-21.607 30.656"/><path stroke-width="1.037" d="M622.43 275.03c12.743-.554 25.892 8.826 26.472 32.236.452 18.29-12.517 26.584-18.742 28.243"/><g stroke-width=".881"><path d="M615.33 363.16l.196-2.502.834-3.974 1.178-3.09 1.324-2.552 1.717-2.06M632.74 343.67l-.195 2.45-.7 1.67-1.088 1.595-1.244.933-1.904.7-1.673.116-1.244-.195M602.33 268.42l.544-2.643 1.166-2.45 1.517-2.45 2.604-3.342 2.06-2.293 3.344-3.382 2.877-2.916 1.828-2.1 2.41-2.914 2.138-3.227 1.283-2.643.7-3.42.21-4.243-.387-1.23M605.44 429.44l2.527-.505 1.905-1.01 1.05-1.05.738-1.206.505-1.944.04-1.36M364.94 403.38l1.866.155 2.41-.194 2.41-.854M379.44 345.38l-.31 2.177-.506.972-.74.932-1.01.777-1.127.504-1.477.234-1.01.078M388.73 326.65l-.544 3.382-.66 1.477-1.362 1.865-1.827 1.4-1.866.932-3.614.894M402.76 274.48l-.7 2.02-.855 1.48-1.166 1.63-1.634 1.478-1.943.934-1.633.388-1.01-.078M394.41 272.65l.04 1.555"/></g><g stroke-width=".987"><path stroke-linecap="round" d="M397.32 325.09c-1.127 1.01-2.25 1.63-3.265 2.03M629.24 397.16c.134.145.58.217.74.31 2.214 1.323 6.576-.325 5.293-3.746"/><path d="M621.54 349.38c1.573 2.055 4.538 2.588 6.883 1.976 1.77-.462 3.067-1.578 3.895-3.03.935-1.64 1.218-3.78.61-5.825-.274-.925-.662-1.706-1.325-2.58-.666-.877-1.492-1.81-2.132-2.23-.17-.11-.338-.26-.517-.382M638.99 390.46c.068-.365.103-.74.103-1.125 0-1.81-.757-3.468-2.01-4.586-.426-.382-.84-.974-1.358-1.233M636.47 384.25c-.073-2.912-2.456-4.995-5.41-5.513M624.54 383.17c-.68-.554-1.406-1.025-2.042-1.69-3.826-4.004-6.704-9.924-6.742-16.677-.037-6.473 2.566-13.062 5.598-15.627M533.07 481.44l2.8-2.566 1.943-1.477 3.654-2.255 3.42-1.632 2.41-.622 4.82-1.09 5.6-.854M511.61 501.2c-2.022 3.11-6.842 7.775-11.896 9.64-5.054-1.865-9.874-6.53-11.895-9.64"/><path stroke-linecap="round" d="M491.28 494.73c-.634 2.35-1.785 4.626-3.468 6.45"/><path d="M491.78 491.47l-.7 3.42M487.43 501.42l-1.477 1.477-2.644 1.477-3.033.934M471.46 227.45c.38-1.182.767-2.072.71-4.014-.193-6.565-5.06-9.542-7.005-15.606-1.157-3.612-1.618-6.75 1.026-9.316 2.308-2.24 4.982-2.205 7.994-1.025 6.018 2.358 13.308 9.137 26.032 9.325-12.724-.188-20.015-6.967-26.032-9.326-3.012-1.18-5.935-1.526-8.242.713-2.644 2.566-1.934 6.015-.777 9.627 1.944 6.064 6.563 9.04 6.756 15.606.058 1.942-.454 2.832-.833 4.014M500.18 206.37c12.517-.66 23.245-9.07 26.706-9.757 3.086-.612 4.81-.336 7.072 1.72-2.264-2.056-4.842-1.992-7.77-.844-6.018 2.358-13.246 9.137-25.97 9.325M624.59 383.2c-5.21-3.732-9.672-10.856-9.718-19.274-.036-6.474 2.565-13.06 5.597-15.627M511.17 500.76c-2.02 3.11-6.842 7.775-11.895 9.64-5.054-1.865-9.874-6.53-11.895-9.64"/><path stroke-linecap="round" d="M479.17 230.74c1.302-.72 2.51-1.406 3.624-2.018 1.65-.906 3.63-.716 4.483.316.962 1.164 1.11 3.182-.226 4.416"/><path d="M460.48 239.49c8.588-1.792 15.585-5.638 20.875-8.597M531.78 487.43c.71.484 1.166 1.493 1.166 1.493.197.468.45.91.52 1.326.405 2.378-1.155 3.86-3.082 4.084-2.648.308-4.635-1.265-5.482-3.17M460.04 239.05c8.588-1.792 15.585-5.638 20.875-8.597M633.38 397.49c-1.633.63-2.526.544-4.557-.358-.834-.37-1.788-.943-2.907-1.578-3.98-2.26-8.708-5.824-13.14-14.143-1.31-2.46-2.123-4.743-2.67-6.992-.424-1.735-.717-3.45-.78-5.21-.108-3 .214-6.133.963-9.722 1.236-5.925 2.724-9.143 6.375-14.15 1.795-2.462 3.343-3.965 6.686-4.042M398.83 279.88c2.78 2.362 4.12 5.287 4.12 8.94 0 4.842-4.05 12.75-14 15.55-3.815 1.072-7.59.207-9.872-1.18"/><path d="M400.46 296.28c1.788 1.244 2.488 2.64 2.488 5.07 0 1.664-1.076 3.822-2.907 5.866-2.997 3.346-8.08 6.19-13.715 6.26-3.057.04-6.23-.6-9.422-2.735-3.413-2.28-5.21-5.364-5.987-8.396"/><path d="M400.3 306.71c2.026 1.862 2.648 4.193 2.648 7.13 0 4.288-1.742 7.6-5.75 11.106-.895.784-1.904 1.52-3.032 2.178M596.4 292.63v5.52M595.96 291.27v7.774M596.4 274.44v10.185M595.96 272.19v13.918M592.99 414.17c-1.93 3.835-3.473 5.85-6.53 8.863-3.086 3.04-5.225 4.435-9.097 6.375-3.772 1.89-6.148 2.492-10.263 3.42-4.113.93-6.518 1.132-10.73 1.323-3.86.176-6.052.015-9.91-.254-4.126-.285-6.416-.86-10.537-1.222-3.404-.3-5.326-.574-8.743-.566-3.512.01-5.525.03-8.983.643-3.224.572-5.052 1.027-8.086 2.256-4.197 1.7-8.94 4.665-9.95 5.987-1.01-1.322-5.755-4.286-9.953-5.987-3.033-1.23-4.862-1.684-8.085-2.255-3.46-.61-5.47-.633-8.984-.642-3.417-.01-5.34.267-8.743.566-4.12.362-6.41.937-10.538 1.222-3.857.267-6.047.43-9.91.255-4.21-.19-6.617-.39-10.728-1.32-4.116-.932-6.49-1.535-10.264-3.422-3.875-1.937-6.01-3.334-9.097-6.375-.334-.328-.65-.645-.95-.953M478.8 505.47l2.8-.35M528.9 501.44l2.825-.27 2.69-1.075 1.884-1.144 2.555-3.026.538-1.144.404-2.623.134-1.21M613.23 277.36c1.213-4.128-.268-8.483-4.266-8.366M402.79 341.75c-1.014 3.428-3.194 5.77-5.62 7.293M402.86 276.05c-1 2.89-2.83 4.953-5.724 6.26-2.886 1.304-6.227.086-8.014-1.292"/><path stroke-linecap="round" d="M380.95 291.2c2.392 1.253 4.82-.584 4.322-3.696-.234-1.458-1.805-3.3-3.933-3.433"/><path d="M390.87 422.86c.516.485.626 1.115 1.322 1.244 1.05.194 1.866.583 2.915-.816 1.294-1.725.6-4.41-.747-6.098-1.44-1.808-5.613-3.405-9.112-1.46-1.17.65-2.638 1.505-3.965 3.264-.502.665-1.35 1.74-1.788 2.488-1.06 1.81-1.494 3.292-1.704 3.887-3.2 9.097.6 18.663 6.49 24.492"/><path stroke-linecap="round" d="M531.59 487.23c.638.665 1.01 1.244 1.01 1.244.197.468.358.91.428 1.327.403 2.38-1.156 3.86-3.083 4.085-2.647.31-4.42-1.25-5.267-3.156"/><path d="M608.5 216.81c5.228.638 9.784 5.628 9.784 10.992 0 6.92-2.33 9.496-5.974 14.446-3.9 5.297-16.638 15.005-16.638 26.045 0 6.686 1.866 10.962 6.686 13.14 3.108 1.403 6.742-.117 8.397-1.612 4.042-3.653 2.426-10.06-1.788-10.827-5.132-.933-6.096 7.145-1.09 6.61M635.73 383.51c-.46-2.77-2.813-4.88-5.648-4.88-3.164 0-5.73 2.628-5.73 5.87 0 1.588.616 3.03 1.616 4.085"/><path d="M599.79 279.88c-2.78 2.362-4.12 5.287-4.12 8.94 0 4.842 4.05 12.75 14 15.55 3.815 1.072 7.46.97 9.74-.417M375.61 287.8c-2.378.794-5.35 2.277-7.55 5.395-1.856 2.63-2.938 6.286-3.608 9.485-.294 1.4-.643 5.832.252 10.41.66 3.38 2.057 6.527 3.602 8.806.553.817 1.055 1.367 1.62 1.932.518.518 1.253.975 1.774 1.373M471.72 469.02c7.576 3.36 13.13 5.875 17.84 13.31 1.476 2.333 1.865 5.676 1.865 7.62 0 4.197-1.71 8.94-5.21 11.894-3.245 2.742-6.452 3.576-10.417 3.188-3.007-.295-5.83-2.488-6.298-4.043M396.88 325.2c4.276 3.343 6.064 6.586 6.064 11.74 0 5.909-2.876 9.563-6.22 11.662"/><path stroke-linecap="round" d="M392.99 344.41c6.375 7.93 9.758 12.637 9.952 22.08.18 8.863-2.644 14.927-7.93 21.303"/><path d="M515.23 239.57c1.16-.76 2.01-1.98 2.497-3.485.753-2.325.77-4.308-.474-6.096 1.534 2.008 1.675 3.704 1.243 6.14-.274 1.553-1.264 2.37-2.497 3.486M596.4 374.24v25.24h.067c0 .02-.01 2.39-.212 3.888-.133.983-.272 1.87-.43 2.703"/><path d="M595.96 371.81v27.223h.067c0 .018-.01 2.39-.212 3.887-.21 1.563-.437 2.887-.73 4.125M595.96 339.94v22.702M596.4 341.73v18.463M596.4 318.25v13.84M595.96 316.62v17.064M596.4 304.1v5.37M595.96 303.01v7.776M593.08 412.65c-.165.35-.342.71-.53 1.084-1.93 3.835-3.473 5.85-6.53 8.863-3.086 3.04-5.224 4.435-9.097 6.376-3.772 1.89-6.148 2.49-10.263 3.42-4.112.93-6.518 1.132-10.73 1.322-3.86.175-6.052.01-9.908-.255-4.128-.285-6.417-.86-10.538-1.222-3.404-.3-5.327-.574-8.743-.566-3.512.01-5.524.03-8.983.644-3.223.57-5.052 1.025-8.086 2.254-4.196 1.7-8.94 4.665-9.95 5.987-1.01-1.322-5.754-4.286-9.952-5.987-3.034-1.23-4.862-1.684-8.086-2.254-3.458-.613-5.47-.635-8.983-.644-3.418-.01-5.34.267-8.744.566-4.122.362-6.41.937-10.538 1.222-3.857.267-6.047.43-9.91.255-4.212-.19-6.617-.39-10.73-1.32-4.113-.934-6.488-1.535-10.262-3.422-3.875-1.938-6.01-3.335-9.096-6.376-1.616-1.592-2.808-2.905-3.858-4.355M406.42 413.26c.666 4.942-1.413 9.8-3.523 12.034-1.32 1.4-4.2 4.074-7.775 4.12-5.908.078-7.672-3.986-8.03-4.975"/><path d="M399.4 410.7c1.097 1.083 2.07 2.405 2.893 3.965 1.477 2.8 1.022 7.48-.148 9.64-.13.238-.288.49-.475.75M370.04 453.2c3.514 3.687 8.828 7.692 16.99 11.052 11.16 4.595 28.3 5.654 40.118 6.12 15.715.62 30.193 1.266 39.01 10.998M493.29 475.01c2.598 2.556 5.247 5.295 6.366 8.798M488.18 501.7c-.34.362-.7.707-1.083 1.03-3.246 2.74-6.453 3.576-10.418 3.187-3.008-.295-5.91-2.548-6.686-4.025M461.63 497.35c.145.198.297.39.457.577 1.888 2.198 4.868 3.576 7.978 3.833M512.05 501.64c-2.022 3.11-6.842 7.774-11.895 9.64-5.054-1.866-9.874-6.53-11.896-9.64l-.473-.727M512.13 501.62c.36.392.746.762 1.156 1.11 3.246 2.74 6.453 3.575 10.418 3.186 3.007-.294 5.395-2.303 6.36-4.043 0 0 .54-.58.692-1.136"/><path d="M529.75 500.99l-1.16 1.867-1.766 1.463-2.674 1.11-2.42.1"/><path d="M536.03 483.22c1.43 1.097 2.835 2.76 3.599 4.534.49 1.14.717 2.396.786 3.698.133 2.468-.735 4.74-2.222 6.474-1.998 2.326-5.113 3.733-8.43 3.866-.246.01-.49.01-.734 0M529.32 501.35c-3.17.127-6.004-1.23-8.092-3.375M620.72 391.93c-2.474-2.28-5.036-5.44-7.507-10.077-1.31-2.46-2.124-4.743-2.672-6.992-.422-1.735-.715-3.45-.78-5.21-.106-3 .216-6.133.965-9.722 1.236-5.925 3.443-10.51 6.376-14.15 1-1.242 2.155-2.79 3.25-3.488M618.2 223.83c3.965.31 7.64 4.58 7.59 8.764-.07 6.078-2.108 8.59-6.89 14.545-4.12 5.13-16.482 14.15-16.17 22.78.054 1.53.88 3.114 1.8 4.388M599.59 279.72c.878.867 1.94 1.584 3.207 2.156 2.26 1.02 4.8.495 6.654-.443M576.37 213.9c1.328.904 2.68 2.29 3.415 4.06 2.908 7.022-3.42 12.285-9.252 16.25-4.18 2.843-8.694 4.362-12.968 5.13"/><path d="M569.69 227.43c-1.414-.014-3.095-.417-4.92-2.34-.42-.442-.913-1.027-1.106-1.552M540.45 231.2c-.738-.37-1.53-.91-2.063-1.504-1.386-1.55-2.31-3.65-1.242-6.853.987-2.963 5.746-11.274 5.98-17.027.356-8.79-3.025-13.977-8.313-16"/><path stroke-linecap="round" d="M542.68 203.85l-.206 3.305-.895 3.374-1.723 4.612-1.308 2.96-1.378 2.96-.688 2.067-.276 1.514.207 1.446M595.81 423.4c.272.66.933 1.306.933 1.306 1.01 1.687 4.94 4.655 8.514 4.7 5.91.08 7.312-4.056 7.464-4.974.747-4.51-.795-5.743-3.11-7.013 0 0-1.36-.706-2.993-.434"/><path d="M370.23 403.67c-2.086.534-4.045.547-5.757.033-4.423-1.326-8.007-5.564-6.18-10.83M379.21 343.15c.443.445.586 1.108.653 1.67.683 5.732-4.34 7.402-7.916 6.47-1.77-.463-3.882-2.108-4.71-3.56-.598-1.05-.96-2.3-.963-3.6M400.74 307.15c.896.823 1.517 1.738 1.931 2.757M400.9 296.6c.83.577 1.425 1.312 1.825 2.042"/><path stroke-linecap="round" d="M402.91 303.94c-.483 1.19-1.317 2.475-2.43 3.718-2.998 3.346-8.083 6.19-13.716 6.26-3.057.038-6.23-.6-9.422-2.736-3.413-2.282-5.638-5.528-6.377-8.715"/><path d="M399.11 280.13c1.73 1.47 3.06 3.347 3.698 5.295"/><path stroke-linecap="round" d="M402.86 292.56c-1.384 4.574-5.51 10.23-13.473 12.248-3.804.964-8.702-.24-10.374-1.664"/><path d="M375.06 291.49c.417 4.12 3.174 7.21 8.4 7.308 7.35.138 11.82-10.574 5.288-18.094"/><path stroke-linecap="round" d="M358.52 327.39c1.074 1.347 2.337 2.56 3.63 3.636 2.62 2.182 5.712 4.102 9.272 5.153M379.67 336.95c6.57-.79 10.272-5.684 9.538-11.41-.56-4.363-4.563-7.718-7.285-7.912"/><path d="M390.39 268.92c2.85-.105 4.47 2.483 4.444 4.665"/><path stroke-linecap="round" d="M389.72 229.81c1.56 4.083 4.603 7.275 7.86 9.1M622.86 287.29c2.686 3.679.927 10.932-6.38 11.07-2.853.054-5.428-1.528-6.938-3.924"/><path d="M596.4 239.25v24.686"/><path stroke-linecap="round" d="M380.87 291.14c2.255 1.632 5.15-1.124 4.03-4.05-.757-1.975-3.563-4.106-7.45-1.463-4.294 2.92-3.11 12.13 5.13 12.284 7.35.14 11.82-10.573 5.287-18.092-6.282-7.234-17.727-5.542-25.19.396-3.176 2.526-9.174 9.145-11.04 18.164-.58 2.808-.956 5.112-.912 7.93.03 1.857.2 3.937.757 6.53 1.123 5.24 2.968 9.08 4.805 11.746.704 1.022 1.347 1.87 2.037 2.56 1.28 1.28 1.662 1.957 2.954 3.032 4.223 3.515 9.665 6.27 16.327 5.987 7.308-.31 11.507-5.442 10.73-11.507-.755-5.88-6.69-8.805-10.575-6.064-2.644 1.866-3.584 7.644 1.088 9.018 2.644.778 4.976-2.565 3.11-4.51M584.4 210.68c4.218-2.29 7.47-1.867 9.874 1.47 2.613 3.626 2.986 8.453 2.41 11.28-.855 4.199-2.068 5.942-5.407 8.988"/><path stroke-linecap="round" d="M594.58 212.55c4.82-3.187 10.04-1.834 12.906 2.41 2.1 3.11 2.636 5.712 2.488 9.563-.254 6.6-4.384 11.832-8.94 14.383"/><path d="M617.28 223.67c3.965.31 7.153 3.9 7.153 8.086 0 5.986-1.67 8.583-6.454 14.54-4.12 5.13-16.482 14.15-16.17 22.78.116 3.262 2.867 6.337 5.24 6.508"/><path stroke-linecap="round" d="M617.75 291.14c-2.255 1.632-5.13-1.004-3.887-3.803.86-1.932 3.42-4.353 7.308-1.71 4.294 2.92 3.11 12.13-5.13 12.284-7.35.14-12.317-10.296-5.287-18.092 6.416-7.116 18.315-5.723 25.778.214 3.177 2.527 9.567 9.466 10.937 18.573 1.658 11.02 1.445 24.575-9.937 32.922-4.576 3.356-10.918 4.882-16.516 4.637-7.308-.32-11.506-5.443-10.73-11.507.755-5.88 6.417-8.368 10.575-6.065 4.318 2.393 3.564 8.466-1.09 9.02-2.735.324-4.975-2.567-3.11-4.51"/><path d="M613.86 287.34c1.212-5.454 5.885-5.962 9.658-5.907 10.296.15 17.416 12.364 17.535 24.178.15 14.924-6.334 23.712-17.24 24.18-2.823.12-7.685-1.222-7.77-4.666"/><path stroke-linecap="square" d="M620.2 284.9c10.858 2.413 14.67 12.196 14.67 21.532 0 7.616-.754 18.022-15.575 21.682"/><path d="M638.11 389.58c.068-.365.104-.74.104-1.125 0-3.37-2.733-6.103-6.104-6.103-3.37 0-6.103 2.732-6.103 6.103 0 1.94.905 3.667 2.315 4.785"/><path stroke-linecap="round" d="M616.33 380.33c2.043 3.032 4.516 6.404 9.74 9.238M624.11 406.05c-5.12-3.36-14.838-7.761-23.624-3.428-3.26 1.608-5.442 3.597-6.675 6.84-2.22 5.84.262 12.275 2.79 14.95 1.32 1.398 4.2 4.073 7.773 4.12 5.91.078 7.314-4.057 7.464-4.976.7-4.276-1.788-5.987-3.11-6.453-1.014-.358-4.312-.266-5.012 2.065-.233.778-.275 2.133.348 3.144"/><path stroke-linecap="round" d="M531.99 488.16c1.633 3.343-.224 5.024-2.488 5.287-3.343.388-5.13-2.255-5.364-4.665-.38-3.908 2.915-7.45 6.842-7.386 3.535.057 6.414 2.338 7.764 5.477.49 1.14.718 2.395.788 3.697.132 2.468-.735 4.742-2.223 6.474-2 2.326-5.114 3.733-8.43 3.866-6.6.265-11.74-5.908-11.74-12.206 0-12.05 17.872-18.623 24.957-20.314 8.708-2.077 14.006-2.855 27.99-3.632 5.597-.31 9.697-.153 15.86-.792 5.516-.572 8.397-.84 14.072-2.162 7.082-1.65 13.683-4.588 19.59-9.952 4.552-4.13 7.154-7.075 9.26-12.75 1.818-4.898 2.654-14.596-1.95-21.77-4.07-6.34-9.72-9.632-16.17-10.565-5.83-.843-10.943 1.672-13.996 7.456-1.477 2.8-1.022 7.48.148 9.64 1.01 1.867 3.897 4.62 7.47 4.666 5.91.077 7.314-4.058 7.465-4.977.7-4.276-1.788-5.987-3.11-6.453-1.014-.358-4.312-.266-5.012 2.065-.233.778-.275 2.133.347 3.144"/><path stroke-linecap="round" d="M526.9 469.02c-7.576 3.36-13.13 5.875-17.84 13.31-1.476 2.333-1.865 5.676-1.865 7.62 0 4.197 1.71 8.94 5.21 11.894 3.246 2.742 6.452 3.576 10.417 3.188 3.007-.295 5.832-2.488 6.298-4.043"/><path d="M601.73 325.2c-3.545 1.183-6.064 6.586-6.064 11.74 0 5.909 2.876 9.563 6.22 11.662"/><path stroke-linecap="round" d="M605.62 344.41c-6.375 7.93-9.758 12.637-9.952 22.08-.182 8.863 2.644 14.927 7.93 21.303"/><path d="M571.64 212.58l.547-.81c2.644-3.887 7.312-4.91 10.73-2.332 4.12 3.11 5.16 8.402 4.042 13.994-.7 3.5-3.074 6.413-6.326 8.52"/><path stroke-linecap="round" d="M414.22 210.68c-4.043-1.866-7.37-1.507-9.874 1.47-2.877 3.42-2.986 8.453-2.41 11.28.855 4.199 2.068 5.942 5.407 8.988"/><path d="M404.03 212.55c-4.82-3.187-10.04-1.834-12.906 2.41-2.1 3.11-2.636 5.712-2.488 9.563.254 6.6 4.384 11.832 8.94 14.383"/><path d="M390.12 216.81c-5.228.638-9.4 5.07-9.4 10.433 0 6.92 1.703 9.718 5.59 15.005 3.897 5.3 16.638 15.005 16.638 26.045 0 6.686-1.866 10.962-6.686 13.14-3.108 1.403-6.742-.117-8.397-1.612-4.043-3.653-2.426-10.06 1.788-10.827 5.13-.933 6.096 7.145 1.09 6.61"/><path d="M381.33 223.67c-3.965.31-7.867 3.723-7.867 7.908 0 5.986 2.385 8.76 7.167 14.716 4.12 5.13 15.762 13.972 15.45 22.602-.116 3.263-2.31 7.253-4.487 6.786"/><path stroke-linecap="round" d="M372 343.94c1.866-4.51 6.686-2.488 6.983 0 .683 5.732-4.34 7.464-7.916 6.53-1.77-.46-3.068-1.577-3.896-3.03-.933-1.64-1.216-3.78-.61-5.824.276-.927.664-1.707 1.327-2.58.666-.88 1.354-1.48 2-1.892 1.374-.877 2.873-.964 5.223-.964 8.708 0 16.327 10.29 18.886 20.977.843 3.52 2 11.37.396 18.815-1.71 7.93-5.138 13.42-9.16 17.585-2.177 2.254-5.146 4.262-8.99 6.435-1.185.67-4.32 2.06-6.496 2.683-2.236.64-4.337.688-6.158.142-4.423-1.327-7.262-5.46-4.96-10.83 1.792-4.18 8.397-6.22 11.35-1.088.252.435.642 1.383.63 2.41-.016 1.368-.585 3.017-1.562 3.64-2.246 1.428-5.838 1.024-5.67-2.94"/><path d="M365.24 397.49c1.633.63 2.526.544 4.557-.358.834-.37 1.79-.943 2.907-1.578 3.98-2.26 8.708-5.824 13.14-14.143 1.31-2.46 2.124-4.743 2.67-6.992.424-1.735.717-3.45.78-5.21.11-3-.214-6.133-.963-9.722-1.235-5.925-2.724-9.143-6.375-14.15-1.795-2.462-3.343-3.965-6.686-4.042"/><path d="M360.51 389.58c-.068-.365-.103-.74-.103-1.125 0-3.37 2.732-6.103 6.103-6.103 3.37 0 6.103 2.732 6.103 6.103 0 1.94-.904 3.667-2.315 4.785"/><path d="M362.88 383.51c.46-2.77 2.813-4.88 5.648-4.88 3.164 0 5.73 2.628 5.73 5.87 0 1.588-.616 3.03-1.616 4.085"/><path d="M374.02 383.2c5.21-3.732 9.672-10.856 9.718-19.274.036-6.474-2.565-13.06-5.597-15.627"/><path stroke-linecap="round" d="M382.29 380.33c-2.043 3.032-4.516 6.404-9.74 9.238"/><path d="M397.81 402.63c-1.45-3.41-4.33-4.985-9.02-5.486-4.66-.497-8.697.784-12.827 3.005-8.06 4.334-12.554 8.994-15.55 17.64-.76 2.195-1.39 5.506-1.303 9.02.14 5.605 1.563 11.73 3.09 14.693 1.335 2.584 4.822 13.994 23.947 21.868 11.16 4.596 28.3 5.655 40.118 6.12 16.256.643 31.255 1.245 39.962 11.974"/><path stroke-linecap="round" d="M374.5 406.05c5.12-3.36 14.838-7.761 23.624-3.428 3.26 1.608 5.442 3.597 6.675 6.84 2.22 5.84-.263 12.275-2.79 14.95-1.32 1.398-4.2 4.073-7.773 4.12-5.91.078-7.314-4.057-7.464-4.976-.7-4.276 1.788-5.987 3.11-6.453 1.014-.358 4.312-.266 5.01 2.065.235.778.276 2.133-.346 3.144"/><path d="M394.86 421.45c.467-1.71.227-3.506-1.32-5.21-1.557-1.71-5.677-3.342-9.176-1.398-1.17.65-2.638 1.506-3.965 3.265-.503.665-1.35 1.74-1.79 2.488-1.058 1.81-1.493 3.292-1.703 3.887-3.845 10.928 2.413 22.532 10.256 27.522 6.842 4.354 13.84 5.598 22.47 6.375 3.993.36 6.256.436 10.263.622 3.223.15 6.008.096 8.63.064 2.157-.027 4.204-.016 6.296-.064 3.416-.08 6.95-.16 11.274.155 4.55.33 7.973.448 11.818 1.09 2.512.417 5.456.82 8.543 1.514.926.208 1.865.378 2.808.662.635.192 1.26.386 1.882.575 5.57 1.7 10.985 3.77 15.257 6.52 1.32.85 2.84 1.672 3.877 2.71.797.794 1.473 1.255 2.124 1.897 2.99 2.94 6.048 6.126 6.763 10.438.132.795.132 1.63.132 2.507 0 2.797-2.28 6.607-8.42 7.85"/><path d="M466.62 488.16c-1.633 3.343.224 5.024 2.488 5.287 3.343.388 5.13-2.255 5.364-4.665.38-3.908-2.915-7.45-6.842-7.386-3.535.057-6.414 2.338-7.764 5.477-.49 1.14-.718 2.395-.788 3.697-.132 2.468.735 4.742 2.223 6.474 1.998 2.326 5.114 3.733 8.43 3.866 6.6.265 11.74-5.908 11.74-12.206 0-12.05-17.873-18.623-24.957-20.314-8.708-2.077-14.006-2.855-27.99-3.632-5.597-.31-9.697-.153-15.86-.792-5.516-.572-8.397-.84-14.073-2.162-7.083-1.65-13.684-4.588-19.592-9.952-4.55-4.13-7.153-7.075-9.26-12.75-1.817-4.898-2.652-14.596 1.95-21.77 4.07-6.34 9.72-9.632 16.173-10.565 5.83-.843 10.943 1.672 13.996 7.456 1.478 2.8 1.022 7.48-.148 9.64-1.01 1.867-3.897 4.62-7.47 4.666-5.91.077-7.314-4.058-7.465-4.977-.7-4.276 1.788-5.987 3.11-6.453 1.014-.358 4.312-.266 5.012 2.065.233.778.275 2.133-.347 3.144"/><path stroke-linecap="round" d="M426.97 212.58l-.547-.81c-2.644-3.887-7.312-4.91-10.73-2.332-4.12 3.11-5.16 8.402-4.042 13.994.7 3.5 3.074 6.413 6.325 8.52"/><path d="M573.04 224.37c-6.298 6.842-12.595 9.026-22.003 9.33-2.938.095-8.552-.933-11.818-3.258-2.1-1.494-4.433-4.05-2.955-8.482.987-2.962 5.746-11.273 5.98-17.027.355-8.79-3.026-13.606-8.313-15.472-9.774-3.45-20.267 6.212-26.59 8.32-3.304 1.1-4.99 1.232-8.007 1.243-3.018-.01-4.763-.14-8.068-1.243-6.323-2.108-16.816-11.77-26.59-8.32-5.287 1.867-8.668 6.683-8.312 15.473.234 5.753 4.992 14.064 5.98 17.027 1.477 4.43-.857 6.988-2.955 8.48-3.265 2.327-8.88 3.354-11.818 3.26-9.407-.304-15.705-2.488-22.003-9.33"/><path stroke-linecap="round" d="M464.58 466.27c1.246.487.303-.295 8.195 3.203 7.576 3.36 12.954 6.3 17.663 13.736 1.477 2.33 1.866 5.675 1.866 7.618 0 1.253-.152 2.554-.46 3.842"/><path d="M465.09 500.06c1.536.768 3.28 1.217 5.08 1.29 6.6.264 11.74-5.91 11.74-12.207 0-4.366-2.376-8.044-5.705-11"/><path stroke-linecap="round" d="M466.52 488.15c-1.594 3.553.677 5.475 2.94 5.738 3.343.39 5.225-2.255 5.458-4.665.254-2.62-1.145-5.17-3.278-6.485"/><path d="M609.53 216.87c5.018 0 9.394 5.585 9.394 11.317 0 6.605-3.513 10.648-6.087 13.705-2.072 2.46-4.316 4.663-6.982 7.348"/><path stroke-linecap="round" d="M603.58 211.58c1.706.79 3.204 2.128 4.346 3.82 2.1 3.11 2.633 5.71 2.487 9.562-.25 6.6-4.998 11.17-9.246 13.96M593.71 211.58c.347.296.68.634 1 1.014 2.877 3.42 3.1 8.478 2.41 11.28-1.035 4.214-2.427 6.03-5.846 8.55M583.36 209.85c4.12 3.11 5.346 8.49 3.98 14.026-.975 3.957-3.463 6.328-6.565 8.217M598.16 296.28c.493 1.447 1.306 1.95 2.332 3.022 2.23 2.335 5.496 4.344 9.623 5.504 3.813 1.073 7.25.267 9.87-1.367M365.29 387.87c1.937-.035 3.87 1.273 5.133 3.468.25.435.64 1.383.628 2.41-.015 1.37-.615 2.83-1.592 3.453-2.245 1.43-6.232.816-6.065-3.15"/><path d="M377.33 336.4c7.703 1.438 15.12 10.73 17.546 20.865.843 3.52 2.002 11.37.396 18.815-1.71 7.93-5.138 13.42-9.16 17.585-.953.987-2.06 1.928-3.323 2.855l-1.644 1.113M368.76 378.67c3.164 0 5.934 3.032 5.934 6.273 0 1.588-.616 3.028-1.615 4.085"/><path d="M366.62 382.35c3.297 0 6.433 3.176 6.433 6.546 0 1.94-.905 3.668-2.316 4.786"/><path stroke-linecap="round" d="M396.84 349.2c3.027 4.063 5.025 7.56 5.954 12.07M402.69 374.53c-.5 2.246-1.26 4.325-2.264 6.322-1.273 2.53-3.492 5.348-5.552 7.253"/><path d="M397.32 325.52c2.92 2.282 4.678 4.64 5.5 7.47"/><path stroke-linecap="round" d="M402.9 317.92c-.767 2.66-2.506 4.674-5.266 7.193M383.33 298.27l3.37-.886 1.993-1.508 1.285-1.817 1.108-2.838.444-2.305"/><path d="M376.51 286.41c-1.063.266-2.41.66-3.824 1.333-1.893.902-3.903 2.305-5.506 4.576-1.856 2.628-2.938 6.285-3.608 9.483-.294 1.4-.644 5.832.252 10.41.66 3.38 2.057 6.527 3.6 8.807.555.817 1.058 1.522 1.622 2.087 2.022 2.02 3.888 3.265 6.997 2.643"/><path stroke-linecap="round" d="M395.38 271.58c-.546 2.007-1.625 4.493-4.774 4.22"/><path d="M383.87 285.2c-3.024-2.956-9.43-3.726-15.798.302-.82.518-1.637 1.183-2.448 1.86-.876.73-1.575 1.568-2.25 2.48-.735.993-1.637 2.68-2.182 3.802-.75 1.544-1.06 2.558-1.474 4.14-1.163 4.456-1.158 8.596-1.02 9.777.176 1.514.32 2.904.567 4.183.845 4.37 2.138 7.44 3.475 9.656 1.407 2.332 4.906 7.69 12.058 8.396 2.81.278 7.612-1.01 7.768-4.665"/><path stroke-linecap="round" d="M568.38 220.42c.478-2.58 3.59-3.08 4.758-1.555 1.8 2.348.61 6.382-3.05 7.526-1.245.39-4.122.234-5.988-2.176-1.512-1.954-1.397-4.373-.832-6.297.366-1.244 1.364-2.33 2.698-3.343 4.25-3.234 11.118-2.488 13.372 2.954 2.91 7.02-3.42 12.284-9.252 16.25-7.34 4.99-15.705 5.898-22.003 5.83-14.306-.156-25.19-6.997-32.265-10.884-1.648-.906-3.345-.72-4.198.31-.963 1.165-.947 3.044.39 4.277"/><path stroke-linecap="round" d="M571.26 218c1.516.07 1.922.662 2.387 1.267 1.8 2.348.485 6.383-3.176 7.526M598.34 307.33c-5.45 5.933-.437 16.116 3.636 18.418 1.41 1.097 2.013.515 3.14 1.175"/><path d="M598.63 295.99c-1.788 1.244-2.418 2.642-2.488 5.07-.058 2.032.296 4.288 2.203 6.272 2.972 3.092 8.786 5.784 14.42 5.855 3.057.038 6.23-.6 9.422-2.736 3.413-2.28 5.21-5.363 5.987-8.396M595.58 398.6c0 .018-.01 2.389-.212 3.887-.59 4.363-1.286 6.874-3.265 10.807-1.93 3.836-3.473 5.85-6.53 8.864-3.086 3.04-5.225 4.434-9.097 6.375-3.772 1.89-6.148 2.49-10.263 3.42-4.113.93-6.518 1.132-10.73 1.322-3.86.175-6.052.01-9.91-.254-4.126-.285-6.416-.86-10.537-1.222-3.404-.3-5.326-.574-8.743-.566-3.512.01-5.525.03-8.983.644-3.224.57-5.052 1.025-8.086 2.255-4.198 1.7-8.94 4.665-9.952 5.987-1.01-1.322-5.754-4.286-9.952-5.986-3.034-1.23-4.862-1.683-8.085-2.254-3.46-.612-5.47-.635-8.984-.644-3.416-.01-5.338.267-8.742.566-4.12.362-6.41.937-10.538 1.223-3.857.267-6.047.43-9.91.255-4.21-.19-6.616-.393-10.728-1.32-4.115-.93-6.49-1.532-10.263-3.422-3.874-1.94-6.012-3.334-9.098-6.375-3.058-3.015-4.6-5.028-6.53-8.864-1.98-3.933-2.674-6.443-3.266-10.807-.203-1.5-.212-3.868-.212-3.887V239.58h192.55V398.6h.067z"/></g><g fill="#c7b37f" stroke="#c7b37f"><path stroke-width=".513" d="M387.41 421.32c0-2.158 1.75-3.907 3.907-3.907 2.158 0 3.907 1.75 3.907 3.907 0 2.158-1.75 3.907-3.907 3.907-2.158 0-3.907-1.75-3.907-3.907zM363.42 393.71c0-1.932 1.236-3.5 2.76-3.5s2.76 1.568 2.76 3.5-1.236 3.5-2.76 3.5-2.76-1.568-2.76-3.5z"/><path stroke="none" d="M377.05 324.36c0-1.587 1.193-2.873 2.665-2.873s2.665 1.286 2.665 2.873c0 1.587-1.193 2.873-2.665 2.873s-2.665-1.286-2.665-2.873zM424.91 221.81c-.168-1.592.788-2.997 2.135-3.138 1.347-.14 2.576 1.035 2.744 2.627.168 1.59-.788 2.996-2.136 3.137-1.347.14-2.576-1.035-2.744-2.627z"/></g><g stroke="#c7b37f" stroke-width=".987" stroke-linecap="round"><path d="M373.92 340.54c-.574.25-.89.456-1.322.91-.412.433-.497.59-.816 1.298-.233.518-.295 1.118-.38 1.858M378.77 386.4c.543-.658.87-1.012 1.391-1.687.435-.562.693-.87 1.074-1.47.344-.54.498-.867.8-1.43.43-.794.642-1.257 1.05-2.06M381.11 401.53c-.925.425-1.472.612-2.37 1.088-.685.363-1.056.594-1.712 1.003-.774.485-1.207.768-1.944 1.308-.767.562-1.16.93-1.904 1.523M396.56 347.25c-.5-.515-.772-.817-1.283-1.32-.534-.53-.825-.84-1.4-1.323-.556-.47-.91-.683-1.492-1.12"/><path stroke-linecap="butt" d="M397.17 326.47c-.743.33-1.133.593-1.905.848-.885.29-1.485.443-2.34.482"/><path d="M371 300.68c.255.907.31 1.448.653 2.325.43 1.102.79 1.68 1.446 2.666.682 1.028 1.11 1.595 1.99 2.458.773.758 1.263 1.14 2.17 1.734.86.564 1.417.76 2.324 1.244M378.04 301.95c.758.406 1.15.712 1.944 1.042.72.298 1.146.424 1.904.598 1.027.236 1.63.295 2.683.32 1.14.026 1.478 0 2.917-.234M398.69 240.15c-1.246-.728-2.008-1.046-3.196-1.866-1.207-.834-1.873-1.345-2.923-2.37-.756-.74-1.18-1.172-1.81-2.023-.563-.758-.778-1.256-1.275-2.06M401.2 224.72c.39 1.046.503 1.684 1.003 2.682.68 1.356 1.203 2.067 2.224 3.188 1.414 1.552 2.613 1.992 4.283 3.265M410.98 224.61c.388.94.507 1.518.995 2.41.432.788.73 1.208 1.3 1.905.724.888 1.196 1.352 2.098 2.06 1.05.824 1.792 1.067 2.94 1.75"/></g><path fill="#703d29" stroke-width=".277" d="M520.78 211.91c-.08-2.65-2.69-2.924-3.69-2.924-2.885 0-3.666 1.8-7.265 3.732-4.512 2.424-6.455 2.962-10.466 2.998-4.01-.036-6.006-.575-10.518-2.998-3.6-1.932-4.205-3.674-7.09-3.674-1.567 0-3.59 1.353-3.514 3.832 0 0-.03.803.093 1.347.048.204.297.14.375.32-.037-1.203.207-1.825.8-2.633.76-1.038 2.024-1.313 2.54-1.313 2.885 0 3.953 1.85 7.553 3.784 4.512 2.424 6.453 2.963 10.464 3 4.01-.037 6.007-.576 10.52-3 3.598-1.932 4.633-3.937 7.52-3.937.998 0 1.704.647 2.03 1.667.203.627.09 1.045.142 1.293.025.12.173.11.206.24.1-.467.333-.633.3-1.733z"/></g><g fill="#703d29"><path d="M413.12 434.42c.81-.872 1.423-.544 1.573-.946.11-.297-.13-.327-.46-.45-.44-.165-.906-.26-1.346-.424-.457-.17-.87-.405-1.327-.576-.19-.07-.625-.293-.75.04-.228.61 1.602.558.988 2.2-.105.28-.365.88-1.274 1.875l-4.14 4.506c-.094.104-.25.326-.343.29-.094-.035-.08-.31-.082-.45l.06-6.39c.004-1.214.107-2.112.303-2.636.276-.734 1.12-.12 1.298-.59.11-.298.026-.31-.477-.498-.25-.094-.733-.195-1.74-.57-.535-.2-1.043-.47-1.562-.665-.236-.088-.672-.41-.828.01-.046.123.12.304.16.34.58.415.727.69.74 1.47l.114 11.636c.01.84.1 1.073.258 1.132.173.065.29-.01.633-.4l8.205-8.904z"/><path d="M417.95 436.22c.533-1.69 1.532-.67 1.723-1.276.067-.214 0-.275-.482-.426-.912-.288-1.51-.398-2.087-.58-.56-.177-1.163-.445-1.788-.642-.144-.046-.527-.225-.623.077-.196.623 1.77.695 1.26 2.314l-2.693 8.542c-.534 1.69-1.54.863-1.737 1.485-.028.09-.036.224.11.27.415.13 1.126.277 1.815.494 1.25.393 1.82.65 2.412.838.368.116.534.09.596-.106.18-.57-1.872-.316-1.182-2.505l2.676-8.487zM423.73 437.93c.318-1.073.817-.926 1.413-.75 1.626.483 2.135 2.073 1.616 3.827-.314 1.055-.707 2.028-3.154 1.303-.483-.143-1.08-.32-.946-.766l1.07-3.614zm-4.434 7.696c-.667 2.254-1.797 1.278-1.966 1.85-.106.358.248.404.425.457.805.238 1.63.405 2.5.663.677.2 1.09.4 1.364.48.37.11.53.04.578-.12.19-.643-1.62-.382-1.054-2.296l.917-3.095c.186-.626.127-.78.98-.527.805.238 1.047.485 1.184 1.382l.515 3.227c.19 1.186.373 2.465 1.644 2.842.644.19 1.824.11 1.988-.444.042-.143-.023-.28-.168-.322-.16-.048-.353.01-.514-.036-.13-.038-.435-.13-.495-.458-.49-2.597-1.092-5.596-1.06-5.704.053-.18.568-.2 1.156-.475.595-.29 1.258-.813 1.597-1.958.244-.823.67-3.44-2.856-4.485-1.078-.32-2.194-.572-3.273-.892-1.014-.3-1.122-.41-1.862-.63-.193-.056-.38-.015-.434.164-.19.643 1.76.5 1.168 2.504l-2.332 7.872zM432.46 449.48c-.518 2.16-2.154.845-2.324 1.552-.096.4.186.448.48.52.653.155 1.21.212 2.303.475s1.614.465 2.268.622c.473.112.787.245.89-.19.123-.508-2.093-.484-1.557-2.716l1.97-8.2c.208-.87.394-.922 1.063-.76l1.388.332c1.896.378.89 2.267 1.543 2.423.425.1.415-.65.435-.875l.22-1.712c.028-.185.09-.44-.156-.498-1.518-.365-2.63-.555-5.014-1.127-2.384-.573-3.46-.908-4.978-1.272-.245-.06-.306.195-.366.372l-.836 2.332c-.09.228-.283.604.06.686.734.176.815-2.318 2.66-1.875l1.372.33c.67.16.81.29.6 1.162l-2.02 8.418zM452.3 444.42c.646-1 1.306-.782 1.385-1.204.057-.312-.184-.3-.53-.364-.463-.086-.94-.098-1.4-.184-.48-.09-.93-.248-1.407-.337-.198-.036-.667-.18-.732.17-.12.642 1.675.272 1.355 1.996-.053.294-.205.93-.928 2.067l-3.296 5.158c-.073.12-.187.365-.286.346-.1-.018-.134-.29-.16-.428l-1.052-6.305c-.205-1.195-.26-2.098-.158-2.648.143-.77 1.083-.31 1.175-.807.057-.312-.03-.31-.557-.407-.264-.048-.756-.063-1.813-.26-.56-.103-1.11-.28-1.654-.38-.247-.047-.73-.29-.813.15-.024.13.17.28.217.307.642.31.836.554.984 1.32l2.132 11.44c.155.826.286 1.04.45 1.07.183.035.286-.06.556-.504l6.534-10.193zM453.23 454.93c.01.456-.032.6.363.78.92.4 1.692.983 2.702 1.152 2.17.362 3.967-1.02 4.37-3.43.39-2.338-.57-3.312-2.197-4.473-2.037-1.458-2.908-1.85-2.702-3.083.206-1.233 1.07-1.807 2.162-1.624 2.85.476 2.524 3.94 2.905 4.004.364.06.45-.15.486-.562l.23-2.496c.037-.43.133-.698-.116-.74-.215-.035-.68.19-.894.154-.496-.083-1.072-.917-2.43-1.144-1.938-.325-3.52 1-3.875 3.116-.324 1.932.533 2.813 1.84 3.75 2.448 1.753 3.452 2.167 3.19 3.73-.247 1.473-1.388 2.19-2.68 1.974-1.838-.308-2.585-2.154-2.82-4.01-.025-.25-.03-.42-.296-.465-.415-.07-.338.492-.332.758l.092 2.607zM477.95 447.96c.538-1.062 1.217-.915 1.25-1.343.026-.316-.213-.28-.565-.306-.468-.036-.943.002-1.412-.035-.485-.038-.948-.15-1.433-.188-.2-.016-.682-.11-.71.243-.05.65 1.694.096 1.556 1.845-.023.297-.108.946-.708 2.152l-2.74 5.474c-.06.127-.147.382-.247.375-.1-.01-.163-.275-.203-.41l-1.704-6.16c-.33-1.167-.48-2.06-.435-2.617.062-.78 1.044-.423 1.084-.925.024-.316-.06-.304-.596-.346-.268-.02-.76.016-1.83-.07-.57-.044-1.133-.163-1.685-.207-.25-.02-.758-.21-.793.237-.01.13.2.26.247.282.672.24.89.462 1.118 1.21l3.316 11.153c.24.805.393 1.004.56 1.017.184.014.277-.09.5-.56l5.432-10.82z"/><path d="M480.6 457c-.016 1.903-1.626 1.553-1.632 2.3-.002.317.334.226.52.228.452 0 .906-.067 1.443-.062.59.01 1.16.085 1.982.092.218 0 .638.024.64-.237.007-.876-2.153.374-2.122-3.208l.056-6.344c0-.167.036-.298.137-.297.084.002.183.096.3.246l7.992 9.772c.116.15.2.263.434.265.2 0 .202-.147.205-.558l.092-10.466c.015-1.96 1.44-1.5 1.445-2.06 0-.055.002-.242-.317-.244-.15 0-.74.068-1.797.06-1.16-.012-1.645-.09-1.914-.092-.218 0-.27.184-.27.314-.006.616 2.045.298 2.03 1.996l-.054 6.213c-.005.466-.04.69-.14.69-.1-.002-.3-.228-.517-.49l-6.678-8.288c-.3-.358-.097-.486-.634-.49-.89-.01-1.326.062-1.763.058-.32 0-.62-.08-.94-.083-.2 0-.286.146-.288.315-.01.895 1.883-.3 1.85 3.28l-.06 7.09zM496.86 448.6c.016-1.772 1.27-1.09 1.274-1.724.002-.224-.08-.262-.585-.267-.958-.01-1.563.06-2.167.055-.588 0-1.242-.086-1.897-.09-.15-.002-.57-.062-.573.256-.005.654 1.802.148 1.788 1.846l.016 8.955c-.015 1.773-1.22 1.278-1.225 1.93 0 .094.032.225.183.226.437.01 1.16-.064 1.882-.058 1.31.01 1.93.09 2.55.097.387 0 .54-.07.54-.275.006-.597-1.882.245-1.862-2.05l.077-8.9zM503.9 457.27c.02 2.22-1.886 1.34-1.88 2.07.006.41.29.388.592.385.67-.01 1.225-.085 2.35-.095 1.125-.01 1.68.06 2.35.054.488 0 .825.05.82-.4-.004-.52-2.148.038-2.17-2.256l-.072-8.433c-.007-.895.16-.99.848-.996l1.427-.012c1.93-.09 1.41 1.984 2.083 1.978.436 0 .245-.73.21-.953l-.2-1.715c-.018-.187-.02-.448-.273-.446-1.56.014-2.686.098-5.137.12-2.452.02-3.577-.044-5.14-.03-.25 0-.25.263-.264.45l-.247 2.465c-.03.243-.128.654.224.65.757-.01.232-2.445 2.13-2.46l1.41-.015c.688-.01.857.086.865.98l.075 8.658zM513.68 453.74c-.3.024-.534.06-.55-.125-.02-.26.065-.473.13-.703l1.03-3.393c.068-.213.134-.236.167-.24.084-.01.034 0 .146.14l1.638 3.258c.102.216.218.413.24.673.012.187-.222.187-.524.21l-2.276.18zm2.874.784c.436-.034.534.146 1.2 1.553.224.488.368.813.4 1.222.09 1.134-1.115 1.023-1.073 1.562.02.26.237.206.538.183.485-.038 1.1-.162 1.835-.22 1.105-.087 1.563-.048 2.166-.096.45-.036.604-.012.58-.327-.05-.614-.896.183-1.536-1.096l-5.415-11.028c-.263-.54-.3-.576-.45-.564-.217.018-.273.377-.367.684l-3.65 11.61c-.337 1.074-1.2 1.03-1.166 1.458.02.242.284.183.518.165.485-.038.965-.15 1.467-.19.536-.043 1.044-.01 1.58-.05.35-.028.88.062.85-.33-.04-.5-1.824-.06-1.93-1.4-.035-.447.148-1.116.236-1.497.288-1.258.634-1.36.92-1.382l3.297-.26zM529.53 446.79c-.168-1.276-.104-1.304 1.91-1.57 3.213-.422 2.2 1.913 2.982 1.81.383-.05.22-.65.17-.888l-.306-1.822c-.023-.167-.163-.336-.38-.308-1.465.193-2.604.418-3.786.574-2.547.335-3.755.42-4.438.51-.233.03-.347.195-.325.362.098.74 1.9-.1 2.12 1.564l1.14 8.658c.297 2.256-1.1 1.424-.988 2.275.015.11.126.19.342.162.916-.12 1.606-.287 2.122-.355.732-.097 1.358-.103 1.99-.186.417-.055.776-.027.727-.397-.064-.5-1.884.21-2.155-1.844l-.36-2.738c-.142-1.073-.237-1.286.528-1.387l1.232-.16c1.732-.23 1.524 1.794 2.056 1.723.4-.053.213-.705.165-.943l-.55-3.277c-.082-.498-.26-.437-.377-.42-.333.043-.16 1.75-1.59 1.94l-1.05.138c-.715.095-.732-.034-.837-.83l-.34-2.59zM535.67 451.03c.69 3.724 3.378 5.787 6.697 5.172 5.267-.976 5.44-5.657 4.965-8.225-.72-3.89-3.62-5.8-6.833-5.166-3.94.768-5.575 4.202-4.83 8.22zm1.837-1.422c-.493-2.66-.137-5.345 2.643-5.917 2.123-.43 4.532 1.324 5.283 5.38.565 3.044.096 5.674-2.734 6.255-2.946.603-4.697-3.04-5.193-5.717zM550.53 443.11c-.26-1.09.245-1.21.85-1.355 1.648-.396 2.885.727 3.312 2.505.257 1.07.403 2.11-2.08 2.705-.49.118-1.093.263-1.202-.19l-.88-3.665zm.01 8.882c.548 2.286-.918 2.004-.78 2.585.088.363.418.226.597.183.817-.196 1.616-.465 2.498-.676.685-.165 1.143-.198 1.42-.265.377-.09.48-.23.442-.394-.157-.654-1.595.478-2.06-1.463l-.754-3.138c-.153-.635-.28-.74.584-.947.816-.196 1.15-.103 1.717.605l2.06 2.537c.758.93 1.555 1.95 2.845 1.64.652-.158 1.634-.816 1.5-1.378-.036-.145-.16-.23-.307-.195-.163.04-.3.187-.464.226-.13.03-.44.106-.658-.15-1.725-2.003-3.744-4.3-3.77-4.41-.044-.18.39-.457.764-.988.37-.55.682-1.334.403-2.495-.202-.835-1.142-3.314-4.718-2.456-1.094.263-2.187.602-3.28.864-1.03.247-1.178.206-1.93.386-.195.047-.336.177-.293.36.156.652 1.775-.447 2.263 1.585l1.916 7.982zM564.01 448.98c.556 2.15-1.505 1.758-1.323 2.462.102.398.374.308.667.232.65-.168 1.168-.38 2.257-.66 1.09-.282 1.646-.35 2.296-.517.47-.122.81-.152.698-.585-.13-.506-2.076.556-2.65-1.666l-2.112-8.164c-.224-.867-.085-1 .58-1.172l1.383-.358c1.85-.555 1.85 1.584 2.5 1.416.422-.11.06-.767-.027-.976l-.61-1.615c-.062-.177-.127-.43-.37-.367-1.513.392-2.583.746-4.957 1.36-2.372.613-3.48.822-4.992 1.214-.244.063-.18.316-.148.5l.356 2.452c.03.243.034.666.375.577.733-.19-.367-2.43 1.47-2.904l1.365-.354c.667-.172.853-.124 1.077.743l2.168 8.38zM572.6 437.52c-.474-1.708.92-1.397.75-2.01-.06-.214-.15-.228-.636-.094-.923.256-1.485.49-2.068.65-.566.158-1.217.26-1.848.436-.146.04-.565.098-.48.405.174.63 1.863-.382 2.316 1.254l2.394 8.63c.474 1.71-.82 1.565-.647 2.194.026.09.094.207.24.167.42-.116 1.096-.38 1.792-.574 1.262-.35 1.88-.444 2.48-.61.37-.103.497-.215.442-.413-.16-.576-1.742.754-2.356-1.458l-2.378-8.575zM576.18 441.69c1.202 3.592 4.15 5.26 7.352 4.19 5.08-1.7 4.6-6.36 3.77-8.836-1.254-3.75-4.39-5.24-7.484-4.166-3.793 1.31-4.934 4.937-3.638 8.812zm1.62-1.664c-.857-2.565-.878-5.273 1.795-6.227 2.043-.724 4.672.68 5.98 4.59.983 2.936.885 5.605-1.836 6.575-2.834 1.006-5.075-2.356-5.94-4.94zM589.72 431.56c-.41-1.04.074-1.232.652-1.46 1.578-.622 2.96.318 3.63 2.02.403 1.024.692 2.033-1.683 2.968-.47.185-1.048.412-1.22-.023l-1.38-3.506zm1.245 8.794c.86 2.187-.63 2.113-.41 2.67.135.346.443.165.615.097.78-.307 1.535-.684 2.378-1.016.657-.26 1.106-.355 1.37-.46.36-.142.445-.295.383-.452-.245-.625-1.51.697-2.243-1.16l-1.183-3.004c-.24-.608-.38-.692.447-1.018.782-.308 1.125-.263 1.785.36l2.393 2.225c.88.816 1.812 1.713 3.046 1.227.625-.246 1.506-1.034 1.294-1.572-.055-.14-.19-.206-.33-.15-.157.06-.272.226-.428.288-.125.05-.422.166-.672-.056-1.986-1.744-4.306-3.738-4.347-3.843-.067-.174.324-.51.62-1.086.29-.596.49-1.416.052-2.527-.315-.8-1.592-3.123-5.013-1.776-1.048.414-2.083.9-3.13 1.314-.984.388-1.136.367-1.855.65-.188.075-.31.222-.24.396.245.625 1.695-.688 2.46 1.256l3.01 7.638z"/></g><g fill="#fedf00"><path fill="#d52b1e" d="M412.66 249.25h82.18v82.023h-82.18z"/><path id="a" fill="#fff" d="M451.2 313.83s-.048 2.93-.855 5.287c-.933 2.72-.94 2.72-1.796 4.043-1.153 1.78-2.558 3.082-3.81 3.887-1.96 1.258-3.95 1.888-5.95 1.71-5.49-.486-8.037-6.44-9.282-11.273-1.32-5.13-5.073-7.923-7.463-6.064-1.4 1.09-1.48 2.914-.31 4.665 1.243 1.866 4.098 2.8 4.098 2.8l-2.933 3.73s-6.302-.82-7.535-7.392c-.466-2.488.742-7.134 4.89-8.522 5.298-1.773 8.687 2.005 10.32 5.192 2.245 4.384 3.21 12.434 9.43 11.19 3.383-.677 4.975-5.598 4.975-7.852l2.467-2.644 3.654 1.167.1.078z"/><use xlink:href="#a" transform="matrix(-1 0 0 1 907.52 0)"/><path d="M461.12 278.95l10.76-11.643s1.624-1.31 1.61-3.401l-2.22.345-.496-1.14-.11-1.148 2.98-.63c.05-.484.008-.85.093-1.384.08-.494.19-.76.31-1.244l-3.264.218c.166-.57.128-.875.31-1.406.155-.447.198-.618.504-1.103.606-.09 1.158-.228 1.907-.304.728-.074 1.143-.04 1.873-.086 1.78-3.32 9.19-6.373 14.454-.904 3.81 3.958 2.99 11.22-1.95 13.14-2.798 1.087-5.053.444-6.86-1.11l1.97-3.867c2.72 1.625 4.975-.396 4.82-2.495-.197-2.654-1.92-4.297-4.354-4.51-2.254-.197-3.872 1.093-4.898 3.11-.626 1.23-.336 2.134-.544 3.5-.226 1.482-.1 2.31-.537 3.81-.32 1.087-1.155 2.433-2.37 3.59l-11.03 11.936-42.94 46.445-3.228-2.984 43.21-46.737z"/><path fill="#fff" d="M429.51 283.04s2.7 13.372 11.874 33.43c4.665-1.71 7.42-2.798 12.362-2.798 4.943 0 7.697.933 12.362 2.8 9.174-20.06 11.874-33.432 11.874-33.432l-24.236-31.177-24.236 31.177z"/><path d="M456.12 262.41l16.82 21.637s-2.243 10.52-9.078 26.354c-2.646-.6-4.916-1.127-7.733-1.318l-.01-46.67zM451.38 262.41l-16.82 21.637s2.243 10.52 9.078 26.354c2.646-.6 4.916-1.127 7.733-1.318l.01-46.67z"/></g><g fill="#d52b1e"><path fill="#fedf00" d="M503.6 249.25h82.18v82.023H503.6z"/><path d="M515.11 249.25h12.253v82.023H515.11zM538.59 249.25h12.253v82.023H538.59zM562.07 249.25h12.253v82.023H562.07z"/></g><g fill="#d52b1e" stroke="#d52b1e" stroke-width=".513"><path fill="#fedf00" stroke="none" d="M412.97 402.41c.233 1.477.76 4.012 2.163 6.61 1.477 2.33.932 2.268 4.276 6 1.644 1.837 4.212 3.41 6.226 4.494 2.02 1.09 3.517 1.623 6.842 2.496 6.517 1.71 11.09 1.817 16.574 1.598 4.278-.17 7.544-.697 10.25-1.062 3.856-.518 6.73-.827 11.117-1.01 2.132-.09 4.148-.11 6.14 0 2.406.133 4.782.505 7.31 1.01 5.44 1.09 10.96 3.188 10.96 3.188l.015-85.655-82.193-.024V398.6s.168 2.86.318 3.81z"/><path d="M422.51 417.43l3.852 2.24 5.278 1.9-.005-81.527h-9.126zM468.17 421.14l.01-81.1h-9.142v82.397s6.257-.802 9.13-.988zM486.41 340.05h-9.113v81.38c2.97.322 6.023.853 9.13 1.684l-.017-83.064zM449.92 340.05v83.33c-.09.01-6.1.316-9.173-.002l.002-83.314z"/></g><path fill="#fedf00" d="M585.48 402.39c-.233 1.477-.76 4.012-2.163 6.608-1.477 2.333-.932 2.27-4.275 6-1.646 1.838-4.214 3.412-6.228 4.496-2.02 1.09-3.516 1.623-6.84 2.495-6.52 1.71-11.092 1.817-16.575 1.598-4.28-.17-7.545-.698-10.25-1.062-3.858-.518-6.73-.827-11.118-1.01-2.133-.09-4.15-.11-6.142 0-2.406.132-4.782.505-7.31 1.01-5.44 1.09-11.032 3.188-11.032 3.188l.057-85.655 82.193-.024v58.543s-.168 2.86-.318 3.81z"/><g id="b"><path fill="#d52b1e" d="M524.62 346.91s-.366.175-.594.28c-.298.33-.447.52-.78.814-.444.39-.77.503-1.25.843-.23.164-.42.216-.595.438-.25.32-.078.63-.25 1-.185.405-.368.597-.655.938-.366.434-.65.61-1.063 1-.418.395-.587.726-1.093 1-.135.072-.2.142-.345.187-.216.067-.35-.01-.563.062-.388.134-.51.563-.78.72.11.217.106.37.218.593.158.323.705 1.215.812 1.437.21.305.27.7.532.78.537.17.858.155 1.312.126.792.182 1.28.158 2.03.47.614.253.864.574 1.47.843.474.21.772.34 1.28.438.388.074.61.132 1 .094.25-.024.378-.12.626-.156.05-.01.08 0 .125 0l-.03.375c-.006 0 .004.03 0 .032v.062h.062l2.06.906c-.073.118-.15.257-.186.375-.098.32-.114.69-.063.844.63 1.887 1.16 3.067 1.47 3.187.615.236.806.865 1.156 1.5-.123.132-.227.2-.344.312-.614.59-1.152 1.008-1.656 1.812-.745 1.188-1.248 1.203-.312 2.78.55.926.814 1.1 1.53 2.407.363.658.563 1.172.782 1.968.207.752.278 1.19.313 1.97l.967.374.657-.657.625-1.187.03-.906c-.24-.203-.308-.474-.25-.782.07-.368.514-.29.72-.625.282-.46-.333-.734-.658-1.093-.605-.67-1.43-.833-1.625-1.844-.052-.273.078-.427.375-.72.856-.84 1.13-.972 1.97-1.81.24.14.61.192.968.124.28-.053.53.125 1.406.375.61.173.873.086 1.22.03l.374-.093c.05.21.11.415.125.687.053 1.062-.155 2.996.156 3.5.132.214.187.333.282.564.1.24.214.396.22.656.01.696.046 1.14 0 1.875-.045.69-.104 1.042-.22 1.75-.074.45-.165.714-.437 1.062-.283.364-.595.418-.97.688l-.092 1 1.125.47 1.28.31.688-.28c0-.254.04-.4.156-.625.128-.247.232-.44.47-.53.362-.144.76.128.905-.095.16-.242.06-.338.032-.75-.047-.662-.185-.99-.283-1.657-.164-1.11-.21-1.686-.156-2.75.032-.616.04-.956.157-1.562.172-.883.486-1.31.688-2.188.225-.977.265-1.606.375-2.468 3.17.452 5.807.397 9.344-.375.17-.037.75-.25.75-.25.8.69 1.706 1.264 2.718 1.625-.006.1-.015.845 0 .968.037.288-.04.482.125.72.106.15.197.24.375.28.263.06.455.023.657-.156.225-.2.183-.454.25-.75.03-.14.006-.564 0-.687.365.055.49.062.874.062.357 0 .53.014.875-.03.004.08.02.368.03.467.027.245-.076.435.03.657.112.23.25.36.5.407.207.04.355.018.532-.094.296-.185.264-.498.313-.844.015-.11.01-.693 0-.782.212-.067.827-.292 1.03-.375-.004.243-.038.517-.093.812-.07.376-.12.58-.25.938-.206.568-.44.856-.75 1.375-.376.634-.572.985-1.03 1.562-.212.266-.358.386-.563.657-.257.337-.343.566-.595.906-.324.438-.51.724-.938 1.062-.693.55-1.15.11-2.093.844l-.22 1.03 1.438.532 1.282.25.437-.25c-.01-.3.033-.514.22-.75.213-.27.44-.35.78-.407.362-.06.748.034 1.032-.218.35-.31.35-.914.625-1.47.86-1.723 1.62-2.562 3-3.905.613-.597 1.138-.758 1.657-1.438.246-.322.52-.47.53-.875.01-.284-.143-.416-.218-.688-.104-.377-.187-1-.187-1 1.52.744.97.646 1.25 1.406.224.615-.034 1.04.06 1.687.112.756.467 1.114.532 1.875.078.905-.143 1.42-.312 2.313-.15.785-.13 1.277-.47 2-.32.69-.57 1.077-1.155 1.562-.21.175-.37.25-.594.407l-.124 1.03 1.125.376 1.626.437.375-.343c.165-.655-.054-1.617.407-1.688.406-.062.693 0 .782-.312.035-.132.057-.326.092-.625.22-1.886.422-3.646.625-4.5.23-.968.215-1.178.407-1.907.175-.664-.086-.282.406-1.687.734-2.097-.208-2.375-1.063-3.656-.462-.693-.622-.944-.687-1.5-.097-.817.164-1.495.125-2.75-.04-1.32-.023-2.16 0-2.875.115-.053.222-.12.344-.188 1.17-.642 1.635-.836 2.374-2.47.223-.494.32-.992.312-1.467-.005-.332-.065-.652-.094-1.032-.03-.4-.19-.637-.312-.937-.13-.318-.325-.56-.563-.844-.772-.924-1.78-1.132-2.718-1.47-1.485-.53-2.506-.433-4.126-.56-1.673-.133-2.607-.16-4.282-.063-2.006.115-3.128.52-5.125.75-1.915.223-2.977.37-4.906.407-2.26.042-4.42-.46-5.78-.344-2.45.21-2.493.762-6.188 1.063-1.927.157-3.843.187-3.843.187l-2.158-.687c.857-.306 1.067-.488 1.47-1.03.27-.367.232-.68.562-1.064.266-.312.443-.622.78-.97-.31-.248-.642-.375-.937-.436-.363-.076-.573-.042-.937 0-.494.056-.772.124-1.22.344-.358.177-.623.357-.843.593 0 0-1.285-.828-2.187-1.218-1.12-.485-1.6-.712-3-.907zm1.97 11.906h.06c-.01.01-.018.022-.03.03l-.03-.03z"/><g fill="none" stroke="#fedf00" stroke-width=".987" stroke-linecap="round"><path d="M568.77 359.52l-.763.244c-.867.402-1.578.418-2.6.496-2.644.202-4.272-1.057-6.998-.847-1.405.108-2.026 1.19-3.46 1.548-.653.163-1.032.226-1.702.283l.512-1.034s-1.284.26-2.115.263c-.596 0-.936-.028-1.523-.13l1.018-.95s-.814-.133-1.294-.336c-.442-.187-.683-.33-1.06-.63.663-.113 1.036-.19 1.69-.353 1.556-.385 2.04-1.147 3.89-1.325 1.15-.112 3.032-.047 7.643.716 3.035.502 4.38.267 5.535-.258.76-.345 1.01-1.01 1.103-1.788.092-.776-.404-1.404-.874-1.81-.123-.106-.444-.335-1.113-.363"/><path fill="#fcd900" stroke-width=".513" stroke-linecap="butt" d="M524.8 350.61c-.53-.066-.884.01-1.34.291-.48.297-.54.698-.888 1.144.445.1.7.36 1.142.253.347-.084.527-.238.76-.507.317-.363.433-.676.43-1.156l-.104-.024z"/><path d="M536.04 363.79s.264.48.407.8c.248.554.376.878.524 1.467.2.8.115 1.284.242 2.098.022.143.05.263.076.376l-.05 1.13M544.04 362.71s-.22.812-.354 1.333c-.352 1.353-.676 2.087-.944 3.46-.045.23-.078.442-.103.644M531.78 364.17c.79.176.544 3.36 1.79 4.09"/><path stroke-linecap="butt" d="M560.12 369.78l.384-.25c1.014-.414 1.926-1.026 2.686-1.79"/><path d="M552.38 368.02h.007c3.533-.883 5.885-2.648 7.58-2.87"/><path d="M555.97 363.61c.3-.01.585-.033.83-.068 1.467-.21 1.703.687 2.725 1.258 1.857 1.04 2.098 2.307 4.3 3.356.116.055.223.107.32.155l.848.43"/><path fill="#fcd900" stroke-width=".513" stroke-linecap="butt" d="M517.7 354.53c.268.067.432.08.707.054.332-.03.484-.238.817-.25.27-.01.462-.03.684.126.14.1.2.19.28.342.087.166.163.282.124.466-.06.284-.324.418-.614.42-.237 0-.434-.062-.544-.272-.07-.135-.082-.243-.04-.39-.283.108-.49.112-.776.017-.304-.1-.475-.238-.638-.513z"/></g><g fill="#0065bd"><path d="M525.13 364.17c-.797-.237-1.966-.826-1.966-.826.323-.25.587-.265.863-.555.39-.41.373-.79.593-1.32.215-.52.184-.954.67-1.343.29-.23.763-.27 1.12-.165.352.113.758.4.847.766.137.56-.16.886-.246 1.454-.085.568-.292.894-.194 1.46.066.375.227.52.354.907 0 0-1.264-.15-2.04-.38zM524.14 365.12c-.007-.347.27-.634.618-.64.347-.01.634.27.64.618.007.347-.27.634-.618.64-.347.01-.634-.27-.64-.618zM522.38 348.61s-.09-.06-.144-.104c-.383-.31-.42-.653-.6-1.11-.173-.434-.258-.69-.316-1.154-.05-.406 0-.64 0-1.048 0-.37.04-.578 0-.944-.04-.375-.03-.612-.21-.944-.097-.18-.394-.337-.314-.42.094-.096.257-.02.42 0 .4.05.63.166.943.42.376.306.525.57.67 1.05.167.547.25.897.408 1.467.083.295.13.47.284.734.16.275.32.383.524.63l-.01.022c-.3.326-.445.538-.778.833-.305.27-.56.403-.846.573l-.033-.01zM525.98 359.25l2.23 1.03c1.15-.634 2.474-1.923 3.497-3.918.88-1.718 1.02-2.65 1.364-4.313l-1.788-.582-.357.073c-.552 1.724-.693 2.705-1.618 4.193-.802 1.29-1.718 2.305-2.65 3.034l-.677.483zM530.92 377.37c.36-.493.513-.81.922-1.264.456-.505.8-.702 1.312-1.15.155.015.335-.012.48.07-.027.546-.055.95-.18 1.542-.1.48-.186.746-.346 1.21-.135.388-.16.64-.39.98-.154.225-.29.315-.476.517-.51-.742-1.33-1.297-1.322-1.906zM563.93 379.22c.573.21.92.27 1.47.538.61.3.894.576 1.466.944.027.154.104.32.063.483-.532.122-.928.207-1.53.25-.49.037-.77.028-1.26 0-.41-.022-.658.025-1.048-.104-.26-.085-.384-.19-.63-.313.573-.696.88-1.637 1.468-1.797zM554.17 377.18c.573.21.92.27 1.468.538.61.3.896.576 1.468.944.027.154.104.32.063.482-.532.123-.928.208-1.532.252-.49.036-.768.027-1.258 0-.41-.023-.658.024-1.048-.105-.26-.085-.384-.19-.63-.313.573-.696.88-1.637 1.468-1.797zM536.83 379.31c.573.21.92.27 1.47.538.61.3.894.576 1.467.944.026.154.103.32.063.483-.532.122-.928.207-1.53.25-.49.037-.77.028-1.26 0-.41-.02-.658.025-1.048-.104-.26-.085-.384-.19-.63-.313.573-.696.88-1.637 1.468-1.797zM527.85 349.51c-.613-.278-1.05-1.045-.66-1.594.155-.22.412-.174.565-.395.19-.272.142-.507.136-.838-.006-.377-.142-.573-.208-.944-.072-.405-.14-.636-.136-1.048.005-.628-.038-1.076.345-1.573.246-.317.662-.592.826-.612.147.136-.057.502-.033.822.036.462.13.717.288 1.153.203.563.48.81.704 1.363.208.516.4.808.42 1.363.015.457-.025.736-.21 1.154-.165.37-.3.58-.61.84-.27.224-.458.324-.796.418-.248.02-.402-.01-.628-.108z"/></g></g><use xlink:href="#b" y="36.591"/><g fill="none" stroke="#703d29" stroke-width=".797"><path d="M412.66 249.25h82.18v82.023h-82.18zM503.6 249.25h82.18v82.023H503.6zM412.97 402.41c.233 1.477.76 4.012 2.163 6.61 1.477 2.33.932 2.268 4.276 6 1.644 1.837 4.212 3.41 6.226 4.494 2.02 1.09 3.517 1.623 6.842 2.496 6.517 1.71 11.09 1.817 16.574 1.598 4.278-.17 7.544-.697 10.25-1.062 3.856-.518 6.73-.827 11.117-1.01 2.132-.09 4.148-.11 6.14 0 2.406.133 4.782.505 7.31 1.01 5.44 1.09 10.96 3.188 10.96 3.188l.015-85.655-82.193-.024V398.6s.168 2.86.318 3.81zM585.48 402.39c-.233 1.477-.76 4.012-2.163 6.608-1.477 2.333-.932 2.27-4.275 6-1.646 1.838-4.214 3.412-6.228 4.496-2.02 1.09-3.516 1.623-6.84 2.495-6.52 1.71-11.092 1.817-16.575 1.598-4.28-.17-7.545-.698-10.25-1.062-3.858-.518-6.73-.827-11.118-1.01-2.133-.09-4.15-.11-6.142 0-2.406.132-4.782.505-7.31 1.01-5.44 1.09-11.032 3.188-11.032 3.188l.057-85.655 82.193-.024v58.543s-.168 2.86-.318 3.81z"/></g></svg>-0.1033,1.7168,0.6047l2.0596,2.5374c0.75895,0.9306,1.5559,1.9481,2.8455,1.6386,0.65314-0.1567,1.6349-0.8147,1.5001-1.3772-0.0348-0.1449-0.15893-0.2304-0.30616-0.1949-0.16321,0.039-0.30026,0.1871-0.46374,0.2265-0.13058,0.031-0.44068,0.1056-0.65735-0.1495-1.7244-2.0035-3.7438-4.3009-3.7699-4.4098-0.0437-0.1814,0.39058-0.4584,0.76402-0.9894,0.36919-0.549,0.68155-1.3338,0.40267-2.4949-0.20036-0.8346-1.1411-3.3143-4.7168-2.4557-1.0941,0.2625-2.1867,0.6016-3.2808,0.8641-1.0285,0.2471-1.1766,0.2058-1.9279,0.3861-0.19586,0.047-0.33739,0.177-0.29378,0.3585,0.15668,0.6532,1.7754-0.4454,2.2633,1.5866l1.9163,7.9824z"/>
<path d="m564.01,448.98c0.55604,2.1496-1.5052,1.7576-1.3232,2.462,0.10265,0.3976,0.37456,0.3081,0.66721,0.2324,0.6503-0.1682,1.1681-0.3793,2.2574-0.661,1.089-0.2817,1.6442-0.3481,2.2945-0.5164,0.47133-0.1218,0.81043-0.1517,0.69844-0.5853-0.13079-0.5057-2.0762,0.5563-2.6508-1.6656l-2.1116-8.1645c-0.22422-0.867-0.0851-0.9993,0.58137-1.1718l1.3819-0.3573c1.8508-0.5558,1.8491,1.5837,2.4994,1.4157,0.42266-0.1094,0.0617-0.7677-0.027-0.9759l-0.60866-1.6155c-0.0628-0.1765-0.12831-0.4295-0.372-0.3664-1.512,0.3911-2.5824,0.7451-4.956,1.3589-2.3733,0.6137-3.4812,0.8231-4.9932,1.2142-0.2437,0.063-0.17852,0.316-0.14813,0.5006l0.35652,2.4518c0.0284,0.2432,0.0336,0.6658,0.37482,0.5775,0.73165-0.1891-0.36807-2.4293,1.4689-2.9043l1.3656-0.3532c0.66663-0.1724,0.85236-0.124,1.0766,0.7429l2.1676,8.3812z"/>
<path d="m572.6,437.52c-0.47387-1.7079,0.91935-1.3972,0.74995-2.0087-0.0599-0.2156-0.15083-0.229-0.63626-0.095-0.92242,0.2558-1.4849,0.4894-2.0674,0.6509-0.56618,0.1569-1.2173,0.26-1.8482,0.435-0.14588,0.04-0.56534,0.098-0.48063,0.4044,0.17469,0.6292,1.8634-0.3813,2.317,1.2548l2.3936,8.6299c0.47358,1.7079-0.82113,1.5635-0.64666,2.193,0.025,0.09,0.0923,0.2069,0.23806,0.1664,0.42042-0.1169,1.0963-0.3816,1.7922-0.5746,1.2621-0.3501,1.8806-0.4441,2.4794-0.6101,0.37228-0.1034,0.49779-0.2155,0.44293-0.4134-0.15961-0.5752-1.7424,0.7544-2.3556-1.4571l-2.3784-8.5759z"/>
<path d="m576.18,441.69c1.2018,3.5918,4.1509,5.2611,7.3516,4.1901,5.0796-1.6994,4.6006-6.3594,3.7716-8.8365-1.255-3.7508-4.3912-5.2394-7.4847-4.1651-3.7938,1.3088-4.9349,4.9366-3.6385,8.8115zm1.6214-1.6639c-0.85856-2.5652-0.87938-5.2734,1.7939-6.2271,2.0424-0.7226,4.6718,0.6799,5.9803,4.5899,0.98265,2.9373,0.88416,5.6064-1.837,6.5761-2.8326,1.0065-5.0731-2.3557-5.9372-4.9389z"/>
<path d="m589.72,431.56c-0.41027-1.0414,0.0741-1.2322,0.65229-1.4599,1.5781-0.6216,2.9589,0.3183,3.6289,2.0193,0.40353,1.0243,0.69254,2.0334-1.6819,2.9688-0.46881,0.1846-1.0468,0.4123-1.2179-0.023l-1.3814-3.5065zm1.2446,8.7943c0.86165,2.1871-0.62977,2.1128-0.41085,2.6683,0.13666,0.3472,0.44433,0.1661,0.61627,0.098,0.78117-0.3076,1.535-0.6847,2.3784-1.017,0.65622-0.2586,1.1056-0.3551,1.371-0.4601,0.35963-0.1412,0.44348-0.2946,0.38185-0.4511-0.24621-0.625-1.5125,0.6962-2.2442-1.1613l-1.183-3.0031c-0.23919-0.6076-0.38101-0.6923,0.44714-1.0184,0.78116-0.3076,1.1239-0.2623,1.7841,0.3599l2.3928,2.2259c0.88105,0.816,1.8117,1.7128,3.0459,1.2266,0.62497-0.2462,1.5058-1.0341,1.2936-1.5725-0.0545-0.1387-0.18933-0.206-0.3298-0.1506-0.15646,0.062-0.27154,0.2271-0.42773,0.2887-0.12494,0.049-0.42181,0.1662-0.67198-0.056-1.9864-1.7441-4.306-3.7381-4.3468-3.8422-0.0687-0.1736,0.32305-0.5082,0.61878-1.0859,0.28901-0.5952,0.48908-1.416,0.0515-2.527-0.31461-0.7986-1.5913-3.123-5.0129-1.7753-1.0468,0.4125-2.0818,0.9002-3.1286,1.3127-0.98406,0.3877-1.1363,0.3675-1.8553,0.6506-0.18752,0.074-0.30954,0.2219-0.24115,0.3956,0.24621,0.625,1.6963-0.688,2.4622,1.2562l3.0087,7.638z"/>
</g>
<g>
<g fill="#fedf00">
<path fill="#d52b1e" d="m412.66,249.25h82.179v82.023h-82.179z"/>
<path id="mits" fill="#fff" d="m451.2,313.83s-0.048,2.9314-0.85518,5.2867c-0.93313,2.7214-0.94016,2.7214-1.7956,4.0429-1.1524,1.7809-2.5571,3.0827-3.8096,3.8875-1.9583,1.2584-3.9483,1.8876-5.9482,1.7103-5.491-0.4865-8.0382-6.4401-9.2831-11.273-1.3217-5.131-5.0733-7.9231-7.4638-6.0642-1.3994,1.0885-1.4782,2.9142-0.31093,4.6651,1.2441,1.8657,4.0991,2.7988,4.0991,2.7988l-2.9328,3.7319s-6.3019-0.8205-7.5345-7.3932c-0.46629-2.4881,0.74177-7.1335,4.891-8.5222,5.2968-1.7731,8.686,2.0041,10.318,5.1916,2.2456,4.3836,3.2096,12.434,9.4294,11.19,3.3838-0.6768,4.976-5.5979,4.976-7.8525l2.467-2.6434,3.6542,1.1664,0.0986,0.078z"/>
<use xlink:href="#mits" transform="matrix(-1,0,0,1,907.5206,0)"/>
<path d="m461.12,278.95,10.76-11.643s1.624-1.3096,1.6096-3.4015l-2.2186,0.3452-0.49694-1.1416-0.11054-1.1473,2.9817-0.6292c0.0473-0.4843,0.007-0.8507,0.092-1.385,0.0795-0.4939,0.19-0.7587,0.31123-1.2441l-3.2656,0.2188c0.16592-0.5715,0.1281-0.8754,0.31094-1.4067,0.15399-0.4469,0.19675-0.6177,0.50287-1.1028,0.60641-0.091,1.158-0.2279,1.9073-0.3039,0.7277-0.073,1.1433-0.039,1.8733-0.085,1.781-3.3214,9.1894-6.3732,14.454-0.9042,3.8096,3.9582,2.9876,11.219-1.9509,13.139-2.7988,1.0885-5.0534,0.4449-6.8617-1.1101l1.9709-3.8656c2.7211,1.6254,4.9757-0.3959,4.8204-2.4952-0.19676-2.6535-1.9186-4.2966-4.3538-4.5094-2.2543-0.197-3.8726,1.093-4.8983,3.1101-0.62583,1.2305-0.33627,2.1332-0.54423,3.4986-0.22568,1.4833-0.0988,2.3109-0.53691,3.8096-0.31825,1.0882-1.1549,2.4341-2.3697,3.5926l-11.03,11.935-42.941,46.445-3.2268-2.9831,43.211-46.737z"/>
<path fill="#fff" d="m429.51,283.04s2.6994,13.372,11.874,33.431c4.665-1.7103,7.4191-2.7991,12.362-2.7991,4.9431,0,7.6971,0.9331,12.362,2.7991,9.1742-20.059,11.874-33.431,11.874-33.431l-24.236-31.177-24.236,31.177z"/>
<path d="m456.12,262.41,16.82,21.637s-2.2433,10.52-9.0782,26.354c-2.646-0.6025-4.9158-1.1276-7.7323-1.3195l-0.009-46.671z"/>
<path d="m451.38,262.41-16.82,21.637s2.2433,10.52,9.0782,26.354c2.646-0.6025,4.9158-1.1276,7.7323-1.3195l0.009-46.671z"/>
</g>
<g fill="#d52b1e">
<path fill="#fedf00" d="m503.6,249.25h82.179v82.023h-82.179z"/>
<path d="m515.11,249.25h12.253v82.023h-12.253z"/>
<path d="m538.59,249.25h12.253v82.023h-12.253z"/>
<path d="m562.07,249.25h12.253v82.023h-12.253z"/>
</g>
<g fill="#d52b1e" stroke="#d52b1e" stroke-width="0.513">
<path fill="#fedf00" stroke="none" d="m412.97,402.41c0.23327,1.4774,0.75922,4.0119,2.1625,6.6087,1.4771,2.3322,0.93285,2.2689,4.2762,6.0008,1.6456,1.837,4.2137,3.4109,6.2271,4.4948,2.0213,1.0885,3.5169,1.6229,6.8417,2.4952,6.5175,1.7104,11.091,1.817,16.574,1.5984,4.2781-0.1709,7.5443-0.6973,10.249-1.0615,3.8574-0.5189,6.7305-0.8278,11.118-1.0105,2.1333-0.089,4.149-0.1101,6.1421,0,2.4057,0.1326,4.7818,0.5054,7.3085,1.0105,5.442,1.0885,10.962,3.1877,10.962,3.1877l0.0135-85.655-82.193-0.023v58.543s0.16862,2.8599,0.31828,3.8096z"/>
<path d="m422.51,417.43,3.8518,2.2412,5.2782,1.8989-0.005-81.527h-9.1264z"/>
<path d="m468.17,421.14,0.0113-81.099h-9.1435v82.396s6.2572-0.80203,9.1312-0.98833z"/>
<path d="m486.41,340.05h-9.1134v81.381c2.9699,0.3213,6.0236,0.85177,9.1311,1.6825l-0.018-83.064z"/>
<path d="m449.92,340.05v83.331c-0.0903,0.01-6.1007,0.31515-9.1733-0.003l0.002-83.314z"/>
</g>
<g>
<path fill="#fedf00" d="m585.48,402.39c-0.23327,1.4771-0.75921,4.0116-2.1626,6.6084-1.4771,2.3325-0.93285,2.2692-4.2759,6.0009-1.6456,1.8369-4.214,3.4108-6.2271,4.495-2.0216,1.0885-3.5169,1.6226-6.8417,2.4952-6.5178,1.7103-11.091,1.817-16.574,1.5981-4.2778-0.1707-7.544-0.6973-10.249-1.0612-3.8574-0.5189-6.7305-0.8279-11.118-1.0108-2.133-0.089-4.149-0.1096-6.1421,0-2.4057,0.1326-4.7815,0.5054-7.3082,1.0108-5.4423,1.0885-11.033,3.1877-11.033,3.1877l0.0565-85.655,82.193-0.023v58.543s-0.16815,2.8596-0.31826,3.8096z"/>
<g id="cow">
<path fill="#d52b1e" d="m524.62,346.91s-0.36638,0.1753-0.59375,0.2813c-0.29828,0.3273-0.44752,0.519-0.78125,0.8125-0.44293,0.3892-0.76881,0.503-1.25,0.8437-0.23045,0.163-0.41928,0.2156-0.59375,0.4375-0.25219,0.3208-0.0791,0.6292-0.25,1-0.18658,0.405-0.36896,0.5965-0.65625,0.9375-0.36612,0.4348-0.64912,0.6098-1.0625,1-0.41817,0.3951-0.58752,0.7265-1.0938,1-0.1339,0.072-0.19832,0.1425-0.34375,0.1875-0.21554,0.067-0.34931-0.011-0.5625,0.062-0.38806,0.1343-0.51024,0.5626-0.78125,0.7188,0.11196,0.2178,0.10686,0.3725,0.21875,0.5937,0.15785,0.3234,0.70512,1.2154,0.8125,1.4375,0.20907,0.3051,0.27011,0.6996,0.53125,0.7813,0.53775,0.1681,0.8586,0.1532,1.3125,0.125,0.79213,0.1818,1.2805,0.1578,2.0312,0.4687,0.61288,0.2539,0.86262,0.575,1.4688,0.8438,0.47418,0.2102,0.77191,0.3394,1.2812,0.4375,0.38665,0.074,0.60802,0.132,1,0.094,0.24961-0.024,0.37681-0.1197,0.625-0.1562,0.0488-0.01,0.0809,0,0.125,0l-0.0312,0.375c-0.005,0,0.005,0.028,0,0.031v0.062h0.0625l2.0625,0.9063c-0.0738,0.1176-0.1515,0.2566-0.1875,0.375-0.0981,0.3205-0.114,0.6886-0.0625,0.8437,0.62922,1.8877,1.1592,3.0684,1.4688,3.1875,0.6154,0.2364,0.80591,0.8649,1.1562,1.5-0.12367,0.1321-0.22734,0.2008-0.34375,0.3125-0.61493,0.5902-1.152,1.0093-1.6562,1.8125-0.74541,1.1879-1.2487,1.2038-0.3125,2.7813,0.54902,0.9247,0.81425,1.0994,1.5312,2.4062,0.36161,0.6591,0.56221,1.1733,0.78125,1.9688,0.20712,0.7519,0.2779,1.1895,0.3125,1.9687l0.96875,0.375,0.65625-0.6562,0.625-1.1875,0.0312-0.9063c-0.23861-0.2026-0.3076-0.4733-0.25-0.7812,0.0695-0.3686,0.51434-0.2913,0.71875-0.625,0.28309-0.4615-0.33152-0.7344-0.65625-1.0938-0.60558-0.6697-1.4305-0.8329-1.625-1.8437-0.0523-0.2732,0.0776-0.4267,0.375-0.7188,0.85519-0.8399,1.1299-0.9736,1.9688-1.8125,0.242,0.142,0.61054,0.1932,0.96875,0.125,0.27914-0.053,0.52914,0.1252,1.4062,0.375,0.60951,0.1736,0.8732,0.086,1.2188,0.031l0.375-0.094c0.0504,0.2114,0.1115,0.4157,0.125,0.6875,0.0531,1.0604-0.15471,2.9947,0.15625,3.5,0.13118,0.2131,0.18605,0.3315,0.28125,0.5625,0.0986,0.2406,0.21375,0.3963,0.21875,0.6563,0.0112,0.6956,0.0471,1.1405,0,1.875-0.0441,0.6911-0.10304,1.042-0.21875,1.75-0.074,0.4511-0.16594,0.7136-0.4375,1.0625-0.28336,0.3639-0.59506,0.4174-0.96875,0.6875l-0.0937,1,1.125,0.4687,1.2812,0.3125,0.6875-0.2812c0-0.2544,0.0399-0.399,0.15625-0.625,0.12748-0.2465,0.23181-0.4386,0.46875-0.5313,0.36244-0.1423,0.75947,0.1292,0.90625-0.094,0.15946-0.242,0.0594-0.3375,0.0312-0.75-0.0453-0.6621-0.18355-0.9888-0.28125-1.6563-0.16416-1.1107-0.20985-1.6865-0.15625-2.75,0.0311-0.6165,0.0383-0.9563,0.15625-1.5625,0.17195-0.8824,0.48556-1.3112,0.6875-2.1875,0.22541-0.9775,0.2647-1.6062,0.375-2.4687,3.1694,0.4528,5.8074,0.3972,9.3438-0.375,0.16911-0.037,0.75-0.25,0.75-0.25,0.79947,0.6889,1.706,1.2642,2.7188,1.625-0.006,0.1016-0.0158,0.8456,0,0.9687,0.0365,0.2876-0.0414,0.4813,0.125,0.7188,0.10551,0.1506,0.19603,0.2396,0.375,0.2812,0.26255,0.061,0.45476,0.023,0.65625-0.1562,0.22633-0.2015,0.1843-0.4545,0.25-0.75,0.032-0.1407,0.007-0.5644,0-0.6875,0.36667,0.055,0.49117,0.062,0.875,0.062,0.35765,0,0.52944,0.014,0.875-0.031,0.005,0.081,0.0199,0.3689,0.0312,0.4688,0.0268,0.2443-0.0757,0.4347,0.0312,0.6562,0.11087,0.2296,0.24955,0.3592,0.5,0.4063,0.20599,0.039,0.35363,0.018,0.53125-0.094,0.29551-0.1851,0.2632-0.4984,0.3125-0.8437,0.0146-0.11,0.0113-0.6919,0-0.7813,0.21161-0.067,0.82729-0.2917,1.0312-0.375-0.005,0.2426-0.0388,0.5168-0.0937,0.8125-0.0699,0.376-0.11965,0.5785-0.25,0.9375-0.20598,0.5676-0.44159,0.8561-0.75,1.375-0.37681,0.6338-0.57286,0.9854-1.0312,1.5625-0.21105,0.266-0.35764,0.3856-0.5625,0.6563-0.25522,0.3374-0.34218,0.5663-0.59375,0.9062-0.32418,0.4382-0.51034,0.724-0.9375,1.0625-0.69364,0.5499-1.1499,0.1099-2.0938,0.8438l-0.21875,1.0312,1.4375,0.5313,1.2812,0.25,0.4375-0.25c-0.0118-0.3011,0.0319-0.5139,0.21875-0.75,0.21357-0.2698,0.44159-0.3511,0.78125-0.4063,0.36132-0.059,0.74677,0.034,1.0312-0.2187,0.35006-0.3109,0.34867-0.9141,0.625-1.4688,0.85827-1.7235,1.6208-2.5628,3-3.9062,0.6126-0.5966,1.1374-0.7579,1.6562-1.4375,0.24651-0.3225,0.51995-0.4692,0.53125-0.875,0.008-0.2828-0.14395-0.4151-0.21875-0.6875-0.10357-0.3771-0.1875-1-0.1875-1,1.5218,0.7446,0.97085,0.6462,1.25,1.4062,0.22555,0.6149-0.0325,1.0395,0.0625,1.6875,0.11114,0.7559,0.46615,1.1139,0.53125,1.875,0.0777,0.9048-0.14299,1.4205-0.3125,2.3125-0.14886,0.7846-0.12995,1.2768-0.46875,2-0.32248,0.6889-0.57094,1.0769-1.1562,1.5625-0.21105,0.175-0.36836,0.2503-0.59375,0.4063l-0.125,1.0312,1.125,0.375,1.625,0.4375,0.375-0.3437c0.16348-0.6545-0.0547-1.6165,0.40625-1.6875,0.40606-0.062,0.69275,0.0001,0.78125-0.3125,0.0367-0.1314,0.0589-0.3259,0.0937-0.625,0.22118-1.8859,0.42149-3.6454,0.625-4.5,0.23012-0.9677,0.21445-1.178,0.40625-1.9063,0.17532-0.6641-0.0853-0.2824,0.40625-1.6875,0.73418-2.0972-0.20816-2.375-1.0625-3.6562-0.46205-0.6931-0.6218-0.9442-0.6875-1.5-0.097-0.8169,0.1647-1.4947,0.125-2.75-0.041-1.3198-0.0225-2.1591,0-2.875,0.11538-0.053,0.22175-0.1207,0.34375-0.1875,1.1706-0.6427,1.6363-0.8361,2.375-2.4688,0.22389-0.4955,0.3195-0.9937,0.3125-1.4687-0.005-0.3321-0.0648-0.6522-0.0937-1.0313-0.0304-0.399-0.19094-0.6375-0.3125-0.9375-0.12945-0.3182-0.32443-0.5586-0.5625-0.8437-0.77243-0.9247-1.7789-1.1319-2.7188-1.4688-1.4835-0.5317-2.505-0.4346-4.125-0.5625-1.6721-0.1321-2.6064-0.1577-4.2812-0.062-2.0067,0.1143-3.1279,0.519-5.125,0.75-1.9158,0.2217-2.9778,0.3701-4.9062,0.4063-2.2602,0.042-4.4207-0.4606-5.7812-0.3438-2.451,0.21-2.493,0.7612-6.1875,1.0625-1.927,0.1574-3.8438,0.1875-3.8438,0.1875l-2.1562-0.6875c0.85659-0.3061,1.0661-0.4881,1.4688-1.0312,0.27183-0.3661,0.23326-0.6784,0.5625-1.0625,0.26677-0.3118,0.443-0.6224,0.78125-0.9688-0.3101-0.2491-0.64289-0.3763-0.9375-0.4375-0.36386-0.076-0.57336-0.042-0.9375,0-0.49414,0.056-0.77245,0.1243-1.2188,0.3438-0.35934,0.177-0.62403,0.3574-0.84375,0.5937,0,0-1.2856-0.8287-2.1875-1.2187-1.1186-0.4843-1.6006-0.7117-3-0.9063zm1.9688,11.906h0.0625c-0.0123,0.01-0.019,0.022-0.0312,0.031l-0.0312-0.031z"/>
<g fill="none" stroke="#fedf00" stroke-width="0.987" stroke-linecap="round">
<path d="m568.77,359.52-0.76315,0.244c-0.86699,0.4021-1.5778,0.4178-2.6001,0.4961-2.6437,0.2021-4.2714-1.0572-6.9976-0.8476-1.4039,0.108-2.0252,1.1909-3.4598,1.5483-0.65256,0.1625-1.0313,0.2254-1.7016,0.2819l0.51272-1.0333s-1.284,0.2617-2.1153,0.2634c-0.59629,0.001-0.93595-0.028-1.5235-0.1301l1.0181-0.9506s-0.81351-0.1319-1.2936-0.3351c-0.44265-0.1871-0.68353-0.3301-1.06-0.6292,0.66327-0.1139,1.0358-0.1921,1.6893-0.3535,1.5561-0.3849,2.0398-1.147,3.8909-1.3254,1.149-0.1112,3.0321-0.046,7.6428,0.7168,3.0357,0.502,4.3822,0.267,5.5354-0.2572,0.7609-0.3459,1.0108-1.0108,1.1031-1.7883,0.0925-0.7764-0.40408-1.4045-0.87376-1.81-0.12268-0.106-0.44404-0.3351-1.1129-0.363"/>
<path fill="#fcd900" stroke-width="0.513" stroke-linecap="butt" d="m524.8,350.61c-0.53042-0.066-0.88442,0.011-1.3397,0.2915-0.48036,0.2958-0.5417,0.6965-0.88809,1.142,0.44517,0.099,0.69843,0.3607,1.1419,0.2538,0.34668-0.084,0.52677-0.2386,0.76117-0.5076,0.31546-0.3625,0.4314-0.6754,0.42746-1.156l-0.10266-0.024z"/>
<path d="m536.04,363.79s0.26396,0.4801,0.40661,0.7992c0.24793,0.5552,0.37624,0.8785,0.52426,1.468,0.20036,0.7987,0.11369,1.2838,0.24088,2.0973,0.0225,0.1432,0.0498,0.2634,0.0767,0.3768l-0.0511,1.1287"/>
<path d="m544.04,362.71s-0.21881,0.8122-0.354,1.3325c-0.35201,1.3538-0.67648,2.0871-0.94381,3.4601-0.0448,0.2302-0.0777,0.4429-0.10356,0.6444"/>
<path d="m531.78,364.17c0.79018,0.1756,0.54424,3.3602,1.7888,4.0904"/>
<path stroke-linecap="butt" d="m560.12,369.78,0.3844-0.249c1.0139-0.4146,1.9251-1.0271,2.6857-1.7897"/>
<path d="m552.38,368.02c0.002-0.0005,0.005-0.0009,0.007,0,3.533-0.883,5.8849-2.6476,7.5786-2.8688"/>
<path d="m555.97,363.61c0.29885-0.011,0.58475-0.033,0.82928-0.068,1.4681-0.2096,1.7042,0.6869,2.7262,1.2584,1.8564,1.0381,2.0973,2.307,4.299,3.3555,0.11638,0.055,0.22331,0.1069,0.32135,0.1551l0.84729,0.4288"/>
<path fill="#fcd900" stroke-width="0.513" stroke-linecap="butt" d="m517.7,354.53c0.26819,0.067,0.43196,0.08,0.70745,0.054,0.33148-0.031,0.48373-0.2378,0.81635-0.2488,0.27097-0.01,0.46261-0.032,0.68407,0.1245,0.14092,0.099,0.1999,0.1894,0.27999,0.3419,0.0871,0.1668,0.163,0.2823,0.1245,0.4666-0.0595,0.2842-0.32417,0.4173-0.61431,0.4198-0.23721,0-0.43391-0.062-0.54422-0.2721-0.0707-0.1348-0.0815-0.2425-0.0388-0.3886-0.28393,0.1067-0.48964,0.1108-0.7775,0.016-0.30308-0.1002-0.47473-0.2386-0.63738-0.513z"/>
</g>
<g fill="#0065bd">
<path d="m525.13,364.17c-0.79692-0.2375-1.9658-0.8259-1.9658-0.8259,0.32277-0.251,0.58672-0.2651,0.86276-0.5547,0.38919-0.4083,0.37287-0.7885,0.59264-1.3192,0.21566-0.52,0.18459-0.9545,0.67142-1.3428,0.28956-0.231,0.76232-0.269,1.1177-0.1652,0.35287,0.1127,0.75921,0.4012,0.84843,0.7662,0.13732,0.5611-0.15984,0.8853-0.24595,1.454-0.0858,0.5679-0.29295,0.894-0.19473,1.4599,0.0651,0.3743,0.22625,0.5186,0.35344,0.9072,0,0-1.2643-0.1488-2.0399-0.3796z"/>
<path d="m524.14,365.12c-0.007-0.3473,0.2707-0.634,0.61795-0.6399,0.34754-0.01,0.634,0.2707,0.64019,0.6179,0.007,0.3475-0.2707,0.634-0.61795,0.6399-0.34754,0.01-0.634-0.2704-0.64019-0.6179z"/>
<path d="m522.38,348.61s-0.0898-0.06-0.14362-0.1036c-0.38326-0.3098-0.41985-0.6531-0.60164-1.111-0.17221-0.4333-0.25692-0.6908-0.3146-1.1534-0.0506-0.4058,0-0.6396,0-1.0485,0-0.3681,0.0396-0.5777,0-0.9435-0.0405-0.3751-0.0306-0.6121-0.21003-0.9438-0.097-0.1801-0.39453-0.3374-0.31435-0.4196,0.0946-0.097,0.25694-0.02,0.4193,0,0.39987,0.048,0.63089,0.1657,0.94381,0.4196,0.37707,0.3058,0.52651,0.5709,0.67171,1.0485,0.16681,0.5481,0.24847,0.8982,0.40774,1.468,0.0826,0.2955,0.12877,0.4688,0.28365,0.7339,0.16096,0.2758,0.31967,0.3838,0.52425,0.6292l-0.0113,0.023c-0.29828,0.327-0.44378,0.5394-0.77666,0.8338-0.30504,0.2699-0.55998,0.4033-0.84674,0.5729l-0.0324-0.01z"/>
<path d="m525.98,359.25,2.2309,1.0311c1.1481-0.6348,2.4732-1.9239,3.4964-3.9191,0.88079-1.7176,1.0206-2.6505,1.3639-4.3127l-1.7891-0.5817-0.35709,0.073c-0.55239,1.7233-0.69253,2.704-1.6178,4.1926-0.80226,1.2911-1.7185,2.3049-2.6491,3.0338l-0.67817,0.4834z"/>
<path d="m530.92,377.37c0.35963-0.4928,0.51327-0.8107,0.92214-1.2635,0.45616-0.5051,0.80003-0.7021,1.3116-1.151,0.15556,0.016,0.33544-0.011,0.4812,0.072-0.0284,0.5448-0.0563,0.9487-0.1801,1.5407-0.10041,0.4804-0.1864,0.746-0.34698,1.2097-0.13462,0.3881-0.15848,0.6391-0.38973,0.979-0.1542,0.2266-0.29013,0.3158-0.47585,0.5178-0.51046-0.7418-1.3302-1.2967-1.3223-1.9053z"/>
<path d="m563.93,379.22c0.57264,0.2103,0.92075,0.2702,1.4686,0.5384,0.6112,0.2994,0.89541,0.5757,1.4678,0.9438,0.0268,0.154,0.10379,0.3188,0.063,0.4823-0.53155,0.1229-0.92749,0.2076-1.5308,0.2516-0.48935,0.036-0.76849,0.027-1.2584,0-0.41028-0.023-0.65818,0.024-1.0485-0.1047-0.26058-0.086-0.38383-0.192-0.62891-0.3146,0.57236-0.6954,0.87992-1.6364,1.4672-1.7968z"/>
<path d="m554.17,377.18c0.57265,0.21,0.92047,0.2699,1.4683,0.538,0.6112,0.2994,0.89571,0.5758,1.4681,0.9438,0.0263,0.154,0.10378,0.3189,0.063,0.4826-0.53157,0.1227-0.92749,0.2074-1.5311,0.2513-0.48934,0.036-0.76821,0.027-1.2581,0-0.41029-0.023-0.65821,0.024-1.0485-0.1046-0.26058-0.086-0.38383-0.1918-0.62921-0.3146,0.57263-0.6954,0.87992-1.6364,1.4675-1.7965z"/>
<path d="m536.83,379.31c0.57292,0.21,0.92073,0.2701,1.4686,0.5383,0.6112,0.2991,0.89571,0.5758,1.4681,0.9438,0.0266,0.154,0.10378,0.3189,0.063,0.4824-0.53157,0.1227-0.92749,0.2075-1.5311,0.2515-0.48934,0.036-0.76821,0.027-1.2581,0-0.41028-0.022-0.65821,0.024-1.0485-0.1049-0.26058-0.086-0.38383-0.1915-0.62922-0.3143,0.57237-0.6953,0.87993-1.6363,1.4672-1.7967z"/>
<path d="m527.85,349.51c-0.61259-0.2781-1.0493-1.0446-0.66072-1.5939,0.15555-0.2197,0.41309-0.1736,0.56617-0.3951,0.18866-0.2726,0.14161-0.5076,0.13597-0.8388-0.007-0.3771-0.14385-0.5727-0.20957-0.9438-0.072-0.4058-0.13913-0.6363-0.13598-1.0485,0.005-0.6281-0.0378-1.0756,0.34555-1.5728,0.24454-0.3171,0.66044-0.5923,0.82421-0.6123,0.14746,0.1364-0.0565,0.502-0.0322,0.822,0.0353,0.462,0.13056,0.7173,0.28758,1.1534,0.20239,0.5625,0.47867,0.8085,0.70267,1.3631,0.20847,0.5156,0.39986,0.8074,0.41956,1.3631,0.0158,0.4567-0.0241,0.7356-0.20959,1.1535-0.16434,0.3695-0.2997,0.5791-0.60951,0.8388-0.26931,0.2252-0.45841,0.3251-0.79637,0.4193-0.24735,0.02-0.40157-0.01-0.62781-0.108z"/>
</g>
</g>
<use xlink:href="#cow" y="36.590756"/>
</g>
<g fill="none" stroke="#703d29" stroke-width="0.797">
<path d="m412.66,249.25h82.179v82.023h-82.179z"/>
<path d="m503.6,249.25h82.179v82.023h-82.179z"/>
<path d="m412.97,402.41c0.23327,1.4774,0.75922,4.0119,2.1625,6.6087,1.4771,2.3322,0.93285,2.2689,4.2762,6.0008,1.6456,1.837,4.2137,3.4109,6.2271,4.4948,2.0213,1.0885,3.5169,1.6229,6.8417,2.4952,6.5175,1.7104,11.091,1.817,16.574,1.5984,4.2781-0.1709,7.5443-0.6973,10.249-1.0615,3.8574-0.5189,6.7305-0.8278,11.118-1.0105,2.1333-0.089,4.149-0.1101,6.1421,0,2.4057,0.1326,4.7818,0.5054,7.3085,1.0105,5.442,1.0885,10.962,3.1877,10.962,3.1877l0.0135-85.655-82.193-0.023v58.543s0.16862,2.8599,0.31828,3.8096z"/>
<path d="m585.48,402.39c-0.23327,1.4771-0.75921,4.0116-2.1626,6.6084-1.4771,2.3325-0.93285,2.2692-4.2759,6.0009-1.6456,1.8369-4.214,3.4108-6.2271,4.495-2.0216,1.0885-3.5169,1.6226-6.8417,2.4952-6.5178,1.7103-11.091,1.817-16.574,1.5981-4.2778-0.1707-7.544-0.6973-10.249-1.0612-3.8574-0.5189-6.7305-0.8279-11.118-1.0108-2.133-0.089-4.149-0.1096-6.1421,0-2.4057,0.1326-4.7815,0.5054-7.3082,1.0108-5.4423,1.0885-11.033,3.1877-11.033,3.1877l0.0565-85.655,82.193-0.023v58.543s-0.16815,2.8596-0.31826,3.8096z"/>
</g>
</g>
</g>
</svg>