<svg xmlns="http://www.w3.org/2000/svg" xmlns:xlink="http://www.w3.org/1999/xlink" width="900" height="600"><path fill="#fff" d="M0 0h900v600H0z"/><path id="a" fill="#435125" d="M434.8 498.25c-.18-.086-.218-.122-.347-.245l-.125-.117c-.324-.297-.86-.822-1.582-1.643-1.332-1.513-3.12-3.728-4.69-5.685-3.115-3.883-5.69-7.228-6.174-7.858l-.793-1.032-7.768-2.395-5.67-2.644 3.03-3.405 10.407 4.456 7.766 1.595 14.363 10.564-.012.008c-.03.024-2.09 1.738-4.136 3.6-.913.83-2.064 1.895-2.877 2.782-.375.408-.705.813-.93 1.14-.138.2-.215.383-.252.47l.892-.554.967.752-1.968.184-.09.02zm-53.34-16.02c-6.777 0-13.47-1.874-19.895-5.567l-.007-.004.003-.01s.84-1.6 2.88-3.095c1.94-1.425 5.44-3.128 11.1-3.15h.116c6.7 0 14.9 2.278 24.373 6.77-.32.213-7.757 5.055-18.567 5.055l.01.01zm-29.37-6.51c-1.253 0-2.38-.474-3.17-1.333-.65-.706-1.114-1.646-1.422-2.878-.504-2.02-.365-4.026-.35-4.218.525-.22 1.06-.342 1.56-.354l.113-.002c2.512 0 4.49 2.178 5.34 4.337.48 1.227.573 2.26.273 3.067-.3.81-1.24 1.37-2.34 1.37zm51.68-5.99c-17.36-2.48-24.717-8.755-27.833-13.583-3.323-5.15-2.64-9.912-2.634-9.96l.003-.014.013-.004c.004 0 1.06-.286 2.657-.294 4.618 0 16.43 2.323 27.798 23.842l.007.014-.02-.01zm-35.58-3.44c-7.416 0-13.062-1.28-16.782-3.804-2.138-1.45-3.184-3.043-3.686-4.125-.47-1.013-.577-1.855-.594-2.022.196-.09 3.232-1.438 7.765-1.65.383-.018.77-.03 1.174-.03 5.732 0 14.448 1.87 23.646 10.78l.01.01h-.012c-4.2.55-8.08.84-11.53.84zm-35.91-1.38c-7.82 0-18.563-2.388-25.263-9.087l-.007-.008.02-.005c.07-.018 7.342-1.863 15.523-2.062.488-.012.98-.02 1.475-.02 7.332 0 12.944 1.423 16.682 4.226 1.305.98 2.018 1.89 2.178 2.783.134.746-.26 1.55-1.056 2.15-1.683 1.27-4.692 1.95-8.945 2.017l-.6.02zm-25.34-13c-.963 0-1.867-.426-2.48-1.167-.505-.614-.857-1.416-1.107-2.522-.418-1.847-.292-3.655-.29-3.673v-.018c.364-.173.77-.265 1.217-.276h.003c1.157 0 2.04.63 2.59 1.158.732.705 1.332 1.645 1.687 2.645.365 1.03.424 1.892.18 2.635-.2.59-.88 1.21-1.8 1.21zm58.53-1.32c-1.253 0-2.38-.474-3.17-1.333-.65-.706-1.114-1.646-1.422-2.878-.504-2.02-.365-4.026-.35-4.218.525-.22 1.06-.342 1.56-.354l.113-.002c2.512 0 4.49 2.178 5.34 4.337.48 1.227.573 2.26.273 3.067-.3.82-1.25 1.37-2.34 1.37zm-28.51-1.18c-15.737-.554-23.904-5.027-27.984-8.683-2.297-2.058-3.574-4.098-4.24-5.447-.628-1.274-.866-2.25-.908-2.438l.02-.01c.004 0 1.49-.53 3.886-.578l.368-.004c5.307 0 16.11 2.23 28.852 17.153v.01zm17.09-1.59c-12.66-1.928-19.834-7.363-23.622-11.585-3.97-4.425-5.16-8.546-5.213-8.738.023-.007 1.57-.41 3.9-.47.17-.004.345-.006.524-.006.18 0 .364.003.552.008 6.368.14 17.934 3.023 23.855 20.785h.01zm-65-6.08c-4.15 0-8.174-.48-11.962-1.427-6.63-1.658-9.473-4.19-10.69-6.02-.693-1.04-.944-1.953-1.032-2.535-.085-.556-.04-1-.03-1.073l.03-.01c.017-.005 4.4-1.236 10.464-1.33.24-.003.48-.005.725-.005 2.927 0 5.808.28 8.564.83 10.535 2.107 16 10.06 16.052 10.14l.005.01-.013.002c-.06.01-5.08 1.42-12.12 1.42zm29.39-10.68c-1.27 0-2.395-.463-3.172-1.304-.64-.69-1.104-1.643-1.42-2.908-.506-2.015-.365-4.002-.35-4.185.525-.22 1.06-.342 1.56-.354l.113-.003c2.507 0 4.49 2.18 5.34 4.338.468 1.188.55 2.208.243 3.034-.31.84-1.22 1.38-2.31 1.38zm-22.1-3.03c-.095-.023-5.977-1.536-11.967-5.225-5.544-3.413-12.326-9.45-13.153-18.83v-.005l.014-.004s.516-.125 1.278-.154c.105-.004.217-.006.334-.006 1.656 0 5.046.466 9.147 3.584 5.22 3.98 10.04 10.92 14.35 20.65zm14.43-.53c-.037-.015-4.23-1.693-9.47-6.084-4.88-4.092-11.745-11.46-16.715-23.33.003 0 1.142-.608 2.886-.718.102-.007.204-.01.307-.01.15 0 .305.006.463.01 2.41.068 6.083 1.07 10.154 5.463 4.676 5.048 8.85 13.34 12.404 24.652l.01.032-.03-.01zm-37.39-1.09c-4.82 0-6.47-2.615-6.957-3.74-.798-1.85-.556-3.69-.554-3.707l.002-.02c.78-.195 1.605-.303 2.398-.314l.165-.002c3.8 0 6.798 1.93 8.084 3.84.254.38 1.036 1.695.39 2.722-.52.81-1.7 1.22-3.53 1.22zm-10.68-13.47c-2.692 0-6.81-.165-11.14-.952-4.295-.78-6.73-4.432-8.014-7.356-1.4-3.185-1.794-6.223-1.798-6.254h.012c13.282.39 19.555 4.27 22.478 7.457 3.018 3.29 3.197 6.706 3.206 6.922h-.01c-.02 0-1.89.18-4.74.18zm13.83-13.82c-.018-.022-1.535-1.898-3.033-4.228-1.573-2.445-3.028-4.996-3.028-7.084 0-2.016-.475-6.266-.758-8.62-.358-2.984-.72-5.54-.75-5.756l.013.004c.337.123 8.308 3.114 8.308 10.59 0 7.49-.738 15.015-.745 15.09v.01h-.01zm-10.33-.71c-.084 0-.167-.008-.25-.02-2.356-.394-6.496-2.195-11.073-4.82-5.082-2.913-9.21-6.035-11.62-8.79-2.198-2.512-3.503-6.457-3.88-11.726-.267-3.74.053-6.854.087-7.163.412-.136.85-.203 1.315-.203 1.763.03 3.646.823 6.188 2.574 1.98 1.366 4.165 3.222 6.49 5.515 4.012 3.957 7.168 7.932 7.2 7.97l.03.04c.266.476 2.538 4.572 4.308 8.56 1.124 2.53 1.767 4.356 2.024 5.745.147.79.19 1.31-.004 1.78-.08.196-.235.377-.385.45-.14.06-.28.09-.44.09z"/><use xlink:href="#a" transform="matrix(-1 0 0 1 842.18 0)"/><path fill="#d47600" d="M698.83 95.476l-2.355.938-.923.368-2.854-.157-2.673 1.283-4.74 3.24-.21.15-1.766.46-1.642-.708-.932.424-.32 1.92-.888 1.38-1.092.766-3.783.387-3.19 1.645-4.15-1.11-1.928.754-4.1 3.692-2.094.992-.73-.042-2.78-.143-1.172.384-1.752 1.692-3.315.258-1.032.715-1.618 3.26-1.753 1.808-1.003.212-1.087-.398-.817.144-.37 2.087-.793.874-2.22.765-1.772 1.477-1.556.8-2.085-.053h-.48l-2.075 1.145-3.905.342-1.624 1.55-.357.33-.758.458-1.24.74-.304.184-1.494-.268-1.75.693-.708-1.09-1.21.728-1.605.07-1.998-.89-1.522-.678-1.113.16-.387 1.94-.04.207-1.17 1.557-2.183 1.322-.297.387-2.485 3.207-4.722 4.966-3.993 2.028-4.14 1.26-2.896 2.38-7.6 3.767-11.993 5.967-2.453.786-3.52.562-6.277 2.312-5.54 1.67-.307.095-1.096.33-7.81 2.364-3.635-.384-2.153.782-5.605-.622-3.897.077-2.467.513-4.637 2.224-7.827 3.762-2.587 2.366-4.027 2.1-4.715 1.494.012-1.98-.028-.085-1.636.518-1.18.373-3.826.59h-2.128l-1.32-.383-.205.07-7.82 2.575-8.718.842-4.363 1.4-3.26-.053-2.04.608-3.994.488-1.428-.38-.322-.09-11.75.51-5.372-.606-2.564.583-4.296-1.445-6.27-.727-1.464-.438-3.295-.978-1.49.86-1.117.118-2.667-.967-.96-.025-2.2.796-1.268-.325-1.177-.937-2.76-.41-1.683-1.415-9.402 1.246-2.55-.75-8.555-2.492-1.36.07-1.697 1.27-2.548.93-2.212.574-3.012.105-3.497-.917-3.607-1.748-1.333-.317-2.974.3-.91.083-5.466-2.93-7.042-4.405-4.778-2.296-1.794-.292-.24.853.89 2.806.302 2.774-.09 2.563-.05 1.587.446 1.425 1.725 1.912.718 1.92.526 5.284-.006 5.363-.84 8.55-.282 1.303-1 4.43-.915 4.07-3.545 10.832-.974 1.343-2.39 1.632-5.42 3.688-3.99 2.3-1.262.524-3.24.245-2.017-.106-2.512-1.36-2.467-.636-3.23-2.324-3.596-.744-3.94-2.278-1.027-1.233-2.146-.203-2.975-.893.002-.005-1.093-.328-.755-.22-3.797-.105-3.54-1.634-1.864-.45-2.548-.13-2.666 1.24v-.004l-1.352.628-1.707-.678-1.235.077-1.4 2.115-.208.328-.964.51-1.2-.017-.94-.025-1.015.444-1.368.593v.003l-1.208.527-.59.255-.01-.01-.364.073-.645.112-.8.153-1.41-.824-.75-.442-1.256-.256-.677.49-.133 2.3-.618 1.378-1.96 1.734-1.994 1.755-1.39 2.047-3.675 8.39-2.303 3.385-.715.79-2.41 2.655-2.135 1.657-4.922 3.815-4.66 1.74-4.012.82-1.95.01-3.696-.493-3.323-1.02-3.65-2.283-4.002-3.217-5.794-5.724-.82-.493-.17-.114-1.826-1.168-1.354.035-.53.874-.29 1.264-.245 1.12-.665 6.367.05.37.348 2.622 4.4 6.15 1.36 3.267.222.372.908 1.525.69 1.163.07.118 1.504 4.488-1.057 2.534.534 1.697-1.336 1.037-.245 1.465 3.95 4.952.863 2.185-.963 3.03-1.536 1.67-.43.457.217 1.28 1.818 1.635 3.09 2.75 1.646 4.085 1.253 1.096 1.457-.31.81.62 1.228-.022 1.208 1.208.782.38 1.236.615.978 1.273.216 3.91 1.822 4.86.028 2.636.01.373 1.134 1.948.356 1.54-.604 4.068 1.445 1.306 1.567-.32 1.012.16 1.626 1.354 1.97 3 1.925-.28 1.222.588 5.902 5.334 1.338.676.074.042.963.483 1.197 1.21 1.856-1.233.206-.02 2.018-.18.886.598 1.704 1.15 2.234-.03 4.844 1.485 2.12.543 4.26 2.648 1.81 1.12 1.073.872 1.424 1.16 2.845 1.225 2.44.584 1.322.315.995.384.024-.063.014.004-.024.064 5.284 2.023 2.862.668 2.648.975 1.927.703 1.414.023 2-1.682 1.936-.112 1.61.4 1.57-.262 2.484-1.53.485-.72 1.762-.84 5.944-.737 1.738.564 4.46-1.94 2.988.83 2.645-.937 5.78 1.284 1.536 1.08 1.717 1.966.21.01 1.912.036-.8 1.33 2.524 2.648 2.278 3.445.154.454 1.657 4.864 1.23 1.723.863 2.406.042 1.568-1.34 1.022-.22.583-.076.215.27.655.507-.276.963-.533 1.166-.18 2.066.22 1.364.143 2.154-1.07 1.427-.71 2.293.988 2.52-.027 1.058.47 2.995 1.36 1.53.143.564-.37.36-.857-.185-.997-1.145-1.323-2.53-2.938-1.037-1.51-.79-2.186-.244-2.794-.174-1.885.314-2.477.68-.884.5-1.968h.01l.128-.515 1.406-1.866 3.724-2.393 4-3.582 3.162-2.085 3.26-1.412.087-.396.363.145 8.292-2.82.137-.015 3.692-.643 24.92 1.755.924-.28.005-.005.83-2.33.447-.432.297-.282 2.74-1.206 1.28-.183 3.556.878 1.456.36 2.332-1.308 1.654.028 3.417-1.866 2.11.053.804-.322 4.11-2.955 3.962-1.135 1.03-.548.363-.2 4.06-2.143 2.58-1.98 2.225-1.184 2.438-.63 6.38-.448 1.283-2.138 2.745-.366 1.657-1.87 1.896-.77 1.36-1.958 1.138-1.64 1.59-.922 5.1-.32 6.046.75.8-.486 1.365-4.875 1.43-.916 3.85-5.612.014-2.045.005-1.708.633-2.433-.43-4.39.51-4.447 2.394-5.65 2.11-2.28 3.4-2.3 1.73-.753 2.448-.412v-.006l.36-.062.624-.107 8.433-.115c.117-.087 3.067-.042 3.067-.042l2.812-.038 7.114 1.266.506.09 2.405.778 2.775 2.157 2.936 2.868.552.535 1.902.8.575.252 1.57-.25 2.237-1.166 1.688-1.427 2.3-1.257.057-.08 1.295-1.948.04-.04.027.007.003-.012-.022-.005.51-.775 4.448-1.733 5.23-.304.588-.317.328-.175 1.382-1.623 1.295-.01 3.135 1.133 2.204-.437 1.75.7 1.36-.16 2.565-.305 2.753 1.938 1.605.205 5.658 3.31.294.048.152.028.324.053.67-.2 1-.288.13-.04.127.174.643.907.882.127 1.044-1.393-.415-.632-.157-.23-2.02-.41-1.816-3.104 1.728-1.86-2.71-3.327-.45-.55-.154-.234-.937-1.423-4.745-7.235-6.182-4.935-.002.004-2.164-1.732-.014-.01-.758-.596-3.302-3.36-2.358-3.13-.31-.673-.486-1.062-1.413-3.078-2.462-1.896-2.006-2.19-.098-.13-4.14-5.625-.68-.943-.98-.565-2.065-.014-.195-.196-.116-.12.07-.075.99-.985 1.106-.278.476-1.09-2.108-6.104-.014-.213-.157-1.95 1.718-8.855.22-1.08 2.928-5.957 1.814-1.485 1.98-3.892 1.696-2.488 1.625-1.582.284-.168 2.934-1.776 2.465-.348 2.35-.33 4.098 1.263 3.9-.076.762-.082 1.77-.203 2.91-.917 1.375-.848.713-1.093 1.487-4.987.478-1.587.917-1.724 5.306-6.11 4.01-3.71 9.02-6.612 4.415-2.64 2.255-1.346 20.126-8.946 5.23-5.302 2.726-2.757 4.82-3.235 5.642-2.31 4.854-3.843 1.06-1.335 1.336-4.303 1.113-.27 1.006-2.173.286-.62 3.96-2.79.45-.224 15.387-7.71 2.235.307 1.197-1.793 4.477-.75.823-.14 1.104-.552.94-1.6v-.315l.128-4.273.956-1.155.522-2.816.49-.65.514-.677 1.268-.89-.22-.532z"/></svg>